<?xml version="1.0" encoding="UTF-8" standalone="no"?>
<svg width="465px" height="251px" viewBox="0 0 465 251" version="1.1" xmlns="http://www.w3.org/2000/svg" xmlns:xlink="http://www.w3.org/1999/xlink">
    <!-- Generator: Sketch 3.6.1 (26313) - http://www.bohemiancoding.com/sketch -->
    <title>tectonic-k8s-openstack</title>
    <desc>Created with Sketch.</desc>
    <defs></defs>
    <g id="Page-1" stroke="none" stroke-width="1" fill="none" fill-rule="evenodd">
        <g id="tectonic-k8s-openstack">
            <rect id="Rectangle-1" stroke="#1D3447" stroke-width="2" stroke-linecap="square" fill="#FFFFFF" x="163" y="44.81" width="280" height="160"></rect>
            <path d="M132.928,119.914 L134.032,119.914 L134.032,128.698 L134.08,128.698 L141.736,119.914 L143.056,119.914 L138.016,125.77 L143.752,135.73 L142.48,135.73 L137.248,126.61 L134.032,130.282 L134.032,135.73 L132.928,135.73 L132.928,119.914 Z M145.672,124.21 L146.728,124.21 L146.728,131.458 C146.728,132.690006 146.931998,133.597997 147.34,134.182 C147.748002,134.766003 148.415995,135.058 149.344,135.058 C150.032003,135.058 150.655997,134.870002 151.216,134.494 C151.776003,134.117998 152.391997,133.522004 153.064,132.706 L153.064,124.21 L154.12,124.21 L154.12,135.73 L153.232,135.73 L153.112,133.81 L153.064,133.81 C152.503997,134.482003 151.912003,135.017998 151.288,135.418 C150.663997,135.818002 149.952004,136.018 149.152,136.018 C147.951994,136.018 147.072003,135.658004 146.512,134.938 C145.951997,134.217996 145.672,133.106008 145.672,131.602 L145.672,124.21 Z M158.536,118.474 L159.592,118.474 L159.592,123.466 L159.544,125.722 C160.136003,125.225998 160.767997,124.802002 161.44,124.45 C162.112003,124.097998 162.807996,123.922 163.528,123.922 C165.064008,123.922 166.215996,124.453995 166.984,125.518 C167.752004,126.582005 168.136,128.009991 168.136,129.802 C168.136,130.778005 168.000001,131.649996 167.728,132.418 C167.455999,133.186004 167.084002,133.837997 166.612,134.374 C166.139998,134.910003 165.596003,135.317999 164.98,135.598 C164.363997,135.878001 163.720003,136.018 163.048,136.018 C162.487997,136.018 161.908003,135.894001 161.308,135.646 C160.707997,135.397999 160.136003,135.066002 159.592,134.65 L159.544,134.65 L159.424,135.73 L158.536,135.73 L158.536,118.474 Z M159.592,133.594 C160.232003,134.138003 160.847997,134.521999 161.44,134.746 C162.032003,134.970001 162.551998,135.082 163,135.082 C163.576003,135.082 164.111998,134.954001 164.608,134.698 C165.104002,134.441999 165.527998,134.082002 165.88,133.618 C166.232002,133.153998 166.507999,132.598003 166.708,131.95 C166.908001,131.301997 167.008,130.586004 167.008,129.802 C167.008,129.097996 166.940001,128.442003 166.804,127.834 C166.667999,127.225997 166.456001,126.702002 166.168,126.262 C165.879999,125.821998 165.504002,125.478001 165.04,125.23 C164.575998,124.981999 164.016003,124.858 163.36,124.858 C162.783997,124.858 162.184003,125.021998 161.56,125.35 C160.935997,125.678002 160.280003,126.145997 159.592,126.754 L159.592,133.594 Z M170.632,129.994 C170.632,129.049995 170.771999,128.202004 171.052,127.45 C171.332001,126.697996 171.707998,126.062003 172.18,125.542 C172.652002,125.021997 173.187997,124.622001 173.788,124.342 C174.388003,124.061999 175.007997,123.922 175.648,123.922 C177.024007,123.922 178.103996,124.385995 178.888,125.314 C179.672004,126.242005 180.064,127.553992 180.064,129.25 L180.064,129.682 C180.064,129.826001 180.048,129.969999 180.016,130.114 L171.712,130.114 C171.728,130.834004 171.839999,131.501997 172.048,132.118 C172.256001,132.734003 172.547998,133.261998 172.924,133.702 C173.300002,134.142002 173.751997,134.485999 174.28,134.734 C174.808003,134.982001 175.399997,135.106 176.056,135.106 C176.680003,135.106 177.243997,135.014001 177.748,134.83 C178.252003,134.645999 178.719998,134.394002 179.152,134.074 L179.584,134.89 C179.119998,135.162001 178.612003,135.417999 178.06,135.658 C177.507997,135.898001 176.808004,136.018 175.96,136.018 C175.223996,136.018 174.532003,135.882001 173.884,135.61 C173.235997,135.337999 172.672002,134.942003 172.192,134.422 C171.711998,133.901997 171.332001,133.270004 171.052,132.526 C170.771999,131.781996 170.632,130.938005 170.632,129.994 L170.632,129.994 Z M179.056,129.298 C179.056,127.809993 178.752003,126.694004 178.144,125.95 C177.535997,125.205996 176.712005,124.834 175.672,124.834 C175.175998,124.834 174.704002,124.937999 174.256,125.146 C173.807998,125.354001 173.404002,125.649998 173.044,126.034 C172.683998,126.418002 172.388001,126.885997 172.156,127.438 C171.923999,127.990003 171.776,128.609997 171.712,129.298 L179.056,129.298 Z M183.184,124.21 L184.096,124.21 L184.192,126.346 L184.264,126.346 C184.648002,125.625996 185.115997,125.042002 185.668,124.594 C186.220003,124.145998 186.839997,123.922 187.528,123.922 C187.752001,123.922 187.951999,123.938 188.128,123.97 C188.304001,124.002 188.487999,124.066 188.68,124.162 L188.44,125.122 C188.247999,125.042 188.080001,124.99 187.936,124.966 C187.791999,124.942 187.608001,124.93 187.384,124.93 C186.871997,124.93 186.332003,125.149998 185.764,125.59 C185.195997,126.030002 184.688002,126.793995 184.24,127.882 L184.24,135.73 L183.184,135.73 L183.184,124.21 Z M190.792,124.21 L191.704,124.21 L191.8,125.986 L191.872,125.986 C192.464003,125.393997 193.071997,124.902002 193.696,124.51 C194.320003,124.117998 195.031996,123.922 195.832,123.922 C197.032006,123.922 197.911997,124.281996 198.472,125.002 C199.032003,125.722004 199.312,126.833992 199.312,128.338 L199.312,135.73 L198.256,135.73 L198.256,128.482 C198.256,127.249994 198.052002,126.342003 197.644,125.758 C197.235998,125.173997 196.560005,124.882 195.616,124.882 C194.927997,124.882 194.304003,125.061998 193.744,125.422 C193.183997,125.782002 192.552004,126.321996 191.848,127.042 L191.848,135.73 L190.792,135.73 L190.792,124.21 Z M202.6,129.994 C202.6,129.049995 202.739999,128.202004 203.02,127.45 C203.300001,126.697996 203.675998,126.062003 204.148,125.542 C204.620002,125.021997 205.155997,124.622001 205.756,124.342 C206.356003,124.061999 206.975997,123.922 207.616,123.922 C208.992007,123.922 210.071996,124.385995 210.856,125.314 C211.640004,126.242005 212.032,127.553992 212.032,129.25 L212.032,129.682 C212.032,129.826001 212.016,129.969999 211.984,130.114 L203.68,130.114 C203.696,130.834004 203.807999,131.501997 204.016,132.118 C204.224001,132.734003 204.515998,133.261998 204.892,133.702 C205.268002,134.142002 205.719997,134.485999 206.248,134.734 C206.776003,134.982001 207.367997,135.106 208.024,135.106 C208.648003,135.106 209.211997,135.014001 209.716,134.83 C210.220003,134.645999 210.687998,134.394002 211.12,134.074 L211.552,134.89 C211.087998,135.162001 210.580003,135.417999 210.028,135.658 C209.475997,135.898001 208.776004,136.018 207.928,136.018 C207.191996,136.018 206.500003,135.882001 205.852,135.61 C205.203997,135.337999 204.640002,134.942003 204.16,134.422 C203.679998,133.901997 203.300001,133.270004 203.02,132.526 C202.739999,131.781996 202.6,130.938005 202.6,129.994 L202.6,129.994 Z M211.024,129.298 C211.024,127.809993 210.720003,126.694004 210.112,125.95 C209.503997,125.205996 208.680005,124.834 207.64,124.834 C207.143998,124.834 206.672002,124.937999 206.224,125.146 C205.775998,125.354001 205.372002,125.649998 205.012,126.034 C204.651998,126.418002 204.356001,126.885997 204.124,127.438 C203.891999,127.990003 203.744,128.609997 203.68,129.298 L211.024,129.298 Z M215.152,125.122 L213.352,125.122 L213.352,124.306 L215.176,124.21 L215.32,120.874 L216.232,120.874 L216.232,124.21 L219.568,124.21 L219.568,125.122 L216.232,125.122 L216.232,132.634 C216.232,133.002002 216.26,133.333999 216.316,133.63 C216.372,133.926001 216.471999,134.181999 216.616,134.398 C216.760001,134.614001 216.955999,134.781999 217.204,134.902 C217.452001,135.022001 217.775998,135.082 218.176,135.082 C218.400001,135.082 218.643999,135.046 218.908,134.974 C219.172001,134.902 219.407999,134.818 219.616,134.722 L219.904,135.586 C219.567998,135.714001 219.232002,135.818 218.896,135.898 C218.559998,135.978 218.272001,136.018 218.032,136.018 C217.471997,136.018 217.008002,135.934001 216.64,135.766 C216.271998,135.597999 215.976001,135.362002 215.752,135.058 C215.527999,134.753998 215.372,134.386002 215.284,133.954 C215.196,133.521998 215.152,133.050003 215.152,132.538 L215.152,125.122 Z M221.176,129.994 C221.176,129.049995 221.315999,128.202004 221.596,127.45 C221.876001,126.697996 222.251998,126.062003 222.724,125.542 C223.196002,125.021997 223.731997,124.622001 224.332,124.342 C224.932003,124.061999 225.551997,123.922 226.192,123.922 C227.568007,123.922 228.647996,124.385995 229.432,125.314 C230.216004,126.242005 230.608,127.553992 230.608,129.25 L230.608,129.682 C230.608,129.826001 230.592,129.969999 230.56,130.114 L222.256,130.114 C222.272,130.834004 222.383999,131.501997 222.592,132.118 C222.800001,132.734003 223.091998,133.261998 223.468,133.702 C223.844002,134.142002 224.295997,134.485999 224.824,134.734 C225.352003,134.982001 225.943997,135.106 226.6,135.106 C227.224003,135.106 227.787997,135.014001 228.292,134.83 C228.796003,134.645999 229.263998,134.394002 229.696,134.074 L230.128,134.89 C229.663998,135.162001 229.156003,135.417999 228.604,135.658 C228.051997,135.898001 227.352004,136.018 226.504,136.018 C225.767996,136.018 225.076003,135.882001 224.428,135.61 C223.779997,135.337999 223.216002,134.942003 222.736,134.422 C222.255998,133.901997 221.876001,133.270004 221.596,132.526 C221.315999,131.781996 221.176,130.938005 221.176,129.994 L221.176,129.994 Z M229.6,129.298 C229.6,127.809993 229.296003,126.694004 228.688,125.95 C228.079997,125.205996 227.256005,124.834 226.216,124.834 C225.719998,124.834 225.248002,124.937999 224.8,125.146 C224.351998,125.354001 223.948002,125.649998 223.588,126.034 C223.227998,126.418002 222.932001,126.885997 222.7,127.438 C222.467999,127.990003 222.32,128.609997 222.256,129.298 L229.6,129.298 Z M232.912,133.642 C233.408002,134.058002 233.935997,134.405999 234.496,134.686 C235.056003,134.966001 235.751996,135.106 236.584,135.106 C237.496005,135.106 238.179998,134.878002 238.636,134.422 C239.092002,133.965998 239.32,133.434003 239.32,132.826 C239.32,132.473998 239.236001,132.162001 239.068,131.89 C238.899999,131.617999 238.680001,131.386001 238.408,131.194 C238.135999,131.001999 237.836002,130.834001 237.508,130.69 C237.179998,130.545999 236.848002,130.410001 236.512,130.282 C236.079998,130.121999 235.644002,129.954001 235.204,129.778 C234.763998,129.601999 234.368002,129.390001 234.016,129.142 C233.663998,128.893999 233.380001,128.598002 233.164,128.254 C232.947999,127.909998 232.84,127.490002 232.84,126.994 C232.84,126.577998 232.919999,126.182002 233.08,125.806 C233.240001,125.429998 233.479998,125.102001 233.8,124.822 C234.120002,124.541999 234.507998,124.322001 234.964,124.162 C235.420002,124.001999 235.951997,123.922 236.56,123.922 C237.168003,123.922 237.763997,124.033999 238.348,124.258 C238.932003,124.482001 239.431998,124.769998 239.848,125.122 L239.272,125.866 C238.887998,125.577999 238.480002,125.334001 238.048,125.134 C237.615998,124.933999 237.104003,124.834 236.512,124.834 C236.063998,124.834 235.680002,124.893999 235.36,125.014 C235.039998,125.134001 234.772001,125.289999 234.556,125.482 C234.339999,125.674001 234.180001,125.897999 234.076,126.154 C233.971999,126.410001 233.92,126.665999 233.92,126.922 C233.92,127.258002 233.995999,127.541999 234.148,127.774 C234.300001,128.006001 234.503999,128.209999 234.76,128.386 C235.016001,128.562001 235.307998,128.717999 235.636,128.854 C235.964002,128.990001 236.295998,129.121999 236.632,129.25 C237.080002,129.426001 237.527998,129.601999 237.976,129.778 C238.424002,129.954001 238.827998,130.169999 239.188,130.426 C239.548002,130.682001 239.839999,130.997998 240.064,131.374 C240.288001,131.750002 240.4,132.217997 240.4,132.778 C240.4,133.210002 240.316001,133.621998 240.148,134.014 C239.979999,134.406002 239.728002,134.749999 239.392,135.046 C239.055998,135.342001 238.648002,135.577999 238.168,135.754 C237.687998,135.930001 237.136003,136.018 236.512,136.018 C235.647996,136.018 234.856004,135.862002 234.136,135.55 C233.415996,135.237998 232.800003,134.866002 232.288,134.434 L232.912,133.642 Z" id="Kubernetes" fill="#1D3447" transform="translate(186.664000, 127.246000) rotate(-90.000000) translate(-186.664000, -127.246000) "></path>
            <rect id="Rectangle-2" stroke="#2276AD" stroke-width="2" fill-opacity="0.1" fill="#2276AD" x="208" y="56.81" width="105" height="62"></rect>
            <path d="M232.59,68.69 L234.55,68.69 L237.09,75.73 L238.05,78.41 L238.13,78.41 L239.05,75.73 L241.57,68.69 L243.53,68.69 L243.53,81.81 L241.95,81.81 L241.95,74.59 C241.95,74.0033304 241.973333,73.3566702 242.02,72.65 C242.066667,71.9433298 242.116666,71.2966696 242.17,70.71 L242.09,70.71 L241.03,73.63 L238.51,80.49 L237.57,80.49 L235.03,73.63 L233.99,70.71 L233.91,70.71 C233.95,71.2966696 233.996666,71.9433298 234.05,72.65 C234.103334,73.3566702 234.13,74.0033304 234.13,74.59 L234.13,81.81 L232.59,81.81 L232.59,68.69 Z M246.25,76.97 C246.25,76.1566626 246.373332,75.4333365 246.62,74.8 C246.866668,74.1666635 247.196665,73.6300022 247.61,73.19 C248.023335,72.7499978 248.499997,72.4166678 249.04,72.19 C249.580003,71.9633322 250.149997,71.85 250.75,71.85 C251.350003,71.85 251.919997,71.9633322 252.46,72.19 C253.000003,72.4166678 253.476665,72.7499978 253.89,73.19 C254.303335,73.6300022 254.633332,74.1666635 254.88,74.8 C255.126668,75.4333365 255.25,76.1566626 255.25,76.97 C255.25,77.770004 255.126668,78.4866635 254.88,79.12 C254.633332,79.7533365 254.303335,80.2866645 253.89,80.72 C253.476665,81.1533355 253.000003,81.4833322 252.46,81.71 C251.919997,81.9366678 251.350003,82.05 250.75,82.05 C250.149997,82.05 249.580003,81.9366678 249.04,81.71 C248.499997,81.4833322 248.023335,81.1533355 247.61,80.72 C247.196665,80.2866645 246.866668,79.7533365 246.62,79.12 C246.373332,78.4866635 246.25,77.770004 246.25,76.97 L246.25,76.97 Z M247.95,76.97 C247.95,77.5300028 248.016666,78.0366644 248.15,78.49 C248.283334,78.9433356 248.473332,79.3333317 248.72,79.66 C248.966668,79.9866683 249.263332,80.2399991 249.61,80.42 C249.956668,80.6000009 250.336665,80.69 250.75,80.69 C251.163335,80.69 251.543332,80.6000009 251.89,80.42 C252.236668,80.2399991 252.533332,79.9866683 252.78,79.66 C253.026668,79.3333317 253.216666,78.9433356 253.35,78.49 C253.483334,78.0366644 253.55,77.5300028 253.55,76.97 C253.55,76.4099972 253.483334,75.9000023 253.35,75.44 C253.216666,74.9799977 253.026668,74.583335 252.78,74.25 C252.533332,73.916665 252.236668,73.6600009 251.89,73.48 C251.543332,73.2999991 251.163335,73.21 250.75,73.21 C250.336665,73.21 249.956668,73.2999991 249.61,73.48 C249.263332,73.6600009 248.966668,73.916665 248.72,74.25 C248.473332,74.583335 248.283334,74.9799977 248.15,75.44 C248.016666,75.9000023 247.95,76.4099972 247.95,76.97 L247.95,76.97 Z M257.81,67.57 L259.45,67.57 L259.45,71.45 L259.41,73.21 C259.850002,72.8233314 260.329997,72.5000013 260.85,72.24 C261.370003,71.9799987 261.903331,71.85 262.45,71.85 C263.07667,71.85 263.629998,71.9666655 264.11,72.2 C264.590002,72.4333345 264.993332,72.7666645 265.32,73.2 C265.646668,73.6333355 265.893332,74.1533303 266.06,74.76 C266.226667,75.3666697 266.31,76.0433296 266.31,76.79 C266.31,77.6166708 266.196668,78.3566634 265.97,79.01 C265.743332,79.6633366 265.436669,80.2166644 265.05,80.67 C264.663331,81.1233356 264.216669,81.4666655 263.71,81.7 C263.203331,81.9333345 262.670003,82.05 262.11,82.05 C261.656664,82.05 261.186669,81.9466677 260.7,81.74 C260.213331,81.5333323 259.756669,81.2366686 259.33,80.85 L259.27,80.85 L259.13,81.81 L257.81,81.81 L257.81,67.57 Z M259.45,79.65 C259.876669,80.0233352 260.299998,80.2866659 260.72,80.44 C261.140002,80.5933341 261.509998,80.67 261.83,80.67 C262.230002,80.67 262.599998,80.5800009 262.94,80.4 C263.280002,80.2199991 263.573332,79.9666683 263.82,79.64 C264.066668,79.3133317 264.259999,78.9100024 264.4,78.43 C264.540001,77.9499976 264.61,77.410003 264.61,76.81 C264.61,76.276664 264.563334,75.7900022 264.47,75.35 C264.376666,74.9099978 264.226668,74.5333349 264.02,74.22 C263.813332,73.9066651 263.546668,73.6633342 263.22,73.49 C262.893332,73.3166658 262.503336,73.23 262.05,73.23 C261.263329,73.23 260.396671,73.6699956 259.45,74.55 L259.45,79.65 Z M269.75,70.09 C269.429998,70.09 269.160001,69.990001 268.94,69.79 C268.719999,69.589999 268.61,69.3366682 268.61,69.03 C268.61,68.7099984 268.719999,68.4533343 268.94,68.26 C269.160001,68.0666657 269.429998,67.97 269.75,67.97 C270.070002,67.97 270.339999,68.0666657 270.56,68.26 C270.780001,68.4533343 270.89,68.7099984 270.89,69.03 C270.89,69.3366682 270.780001,69.589999 270.56,69.79 C270.339999,69.990001 270.070002,70.09 269.75,70.09 L269.75,70.09 Z M268.91,72.09 L270.55,72.09 L270.55,81.81 L268.91,81.81 L268.91,72.09 Z M273.83,67.57 L275.47,67.57 L275.47,79.97 C275.47,80.236668 275.516666,80.4233328 275.61,80.53 C275.703334,80.6366672 275.809999,80.69 275.93,80.69 L276.08,80.69 C276.126667,80.69 276.196666,80.6766668 276.29,80.65 L276.51,81.89 C276.403333,81.9433336 276.276667,81.9833332 276.13,82.01 C275.983333,82.0366668 275.796668,82.05 275.57,82.05 C274.94333,82.05 274.496668,81.8633352 274.23,81.49 C273.963332,81.1166648 273.83,80.5700036 273.83,79.85 L273.83,67.57 Z M278.21,76.97 C278.21,76.169996 278.333332,75.4533365 278.58,74.82 C278.826668,74.1866635 279.153331,73.6500022 279.56,73.21 C279.966669,72.7699978 280.429997,72.4333345 280.95,72.2 C281.470003,71.9666655 282.009997,71.85 282.57,71.85 C283.183336,71.85 283.733331,71.9566656 284.22,72.17 C284.706669,72.3833344 285.113332,72.689998 285.44,73.09 C285.766668,73.490002 286.016666,73.9699972 286.19,74.53 C286.363334,75.0900028 286.45,75.7166632 286.45,76.41 C286.45,76.7700018 286.43,77.0699988 286.39,77.31 L279.83,77.31 C279.896667,78.3633386 280.219997,79.1966636 280.8,79.81 C281.380003,80.4233364 282.136662,80.73 283.07,80.73 C283.536669,80.73 283.966665,80.6600007 284.36,80.52 C284.753335,80.3799993 285.129998,80.1966678 285.49,79.97 L286.07,81.05 C285.643331,81.316668 285.170003,81.549999 284.65,81.75 C284.129997,81.950001 283.53667,82.05 282.87,82.05 C282.216663,82.05 281.606669,81.9333345 281.04,81.7 C280.47333,81.4666655 279.980002,81.1333355 279.56,80.7 C279.139998,80.2666645 278.810001,79.7366698 278.57,79.11 C278.329999,78.4833302 278.21,77.770004 278.21,76.97 L278.21,76.97 Z M285.01,76.23 C285.01,75.229995 284.800002,74.4666693 284.38,73.94 C283.959998,73.4133307 283.370004,73.15 282.61,73.15 C282.263332,73.15 281.933335,73.2199993 281.62,73.36 C281.306665,73.5000007 281.023335,73.6999987 280.77,73.96 C280.516665,74.2200013 280.306667,74.5399981 280.14,74.92 C279.973332,75.3000019 279.863334,75.7366642 279.81,76.23 L285.01,76.23 Z M224.49,93.69 L228.39,93.69 C229.05667,93.69 229.666664,93.7499994 230.22,93.87 C230.773336,93.9900006 231.246665,94.1766654 231.64,94.43 C232.033335,94.6833346 232.339999,95.0133313 232.56,95.42 C232.780001,95.8266687 232.89,96.3166638 232.89,96.89 C232.89,97.5433366 232.703335,98.1333307 232.33,98.66 C231.956665,99.1866693 231.383337,99.549999 230.61,99.75 L230.61,99.83 C231.570005,99.9766674 232.316664,100.309997 232.85,100.83 C233.383336,101.350003 233.65,102.063329 233.65,102.97 C233.65,103.610003 233.530001,104.169998 233.29,104.65 C233.049999,105.130002 232.710002,105.529998 232.27,105.85 C231.829998,106.170002 231.303336,106.409999 230.69,106.57 C230.076664,106.730001 229.403337,106.81 228.67,106.81 L224.49,106.81 L224.49,93.69 Z M228.09,99.29 C229.223339,99.29 230.033331,99.0966686 230.52,98.71 C231.006669,98.3233314 231.25,97.763337 231.25,97.03 C231.25,96.3099964 230.993336,95.7933349 230.48,95.48 C229.966664,95.1666651 229.196672,95.01 228.17,95.01 L226.15,95.01 L226.15,99.29 L228.09,99.29 Z M228.43,105.49 C229.563339,105.49 230.44333,105.280002 231.07,104.86 C231.69667,104.439998 232.01,103.783338 232.01,102.89 C232.01,102.076663 231.703336,101.480002 231.09,101.1 C230.476664,100.719998 229.590006,100.53 228.43,100.53 L226.15,100.53 L226.15,105.49 L228.43,105.49 Z M235.61,104.29 C235.61,103.223328 236.086662,102.406669 237.04,101.84 C237.993338,101.27333 239.50999,100.876668 241.59,100.65 C241.59,100.343332 241.56,100.043335 241.5,99.75 C241.44,99.4566652 241.333334,99.1966678 241.18,98.97 C241.026666,98.7433322 240.823335,98.5600007 240.57,98.42 C240.316665,98.2799993 239.990002,98.21 239.59,98.21 C239.016664,98.21 238.486669,98.3166656 238,98.53 C237.513331,98.7433344 237.076669,98.983332 236.69,99.25 L236.03,98.11 C236.483336,97.8166652 237.036663,97.5333347 237.69,97.26 C238.343337,96.9866653 239.063329,96.85 239.85,96.85 C241.036673,96.85 241.896664,97.2133297 242.43,97.94 C242.963336,98.6666703 243.23,99.6366606 243.23,100.85 L243.23,106.81 L241.87,106.81 L241.73,105.65 L241.69,105.65 C241.223331,106.036669 240.720003,106.366665 240.18,106.64 C239.639997,106.913335 239.070003,107.05 238.47,107.05 C237.643329,107.05 236.960003,106.810002 236.42,106.33 C235.879997,105.849998 235.61,105.170004 235.61,104.29 L235.61,104.29 Z M237.23,104.17 C237.23,104.730003 237.393332,105.129999 237.72,105.37 C238.046668,105.610001 238.449998,105.73 238.93,105.73 C239.396669,105.73 239.839998,105.620001 240.26,105.4 C240.680002,105.179999 241.123331,104.856669 241.59,104.43 L241.59,101.73 C240.776663,101.836667 240.090003,101.963333 239.53,102.11 C238.969997,102.256667 238.520002,102.429999 238.18,102.63 C237.839998,102.830001 237.596667,103.059999 237.45,103.32 C237.303333,103.580001 237.23,103.863332 237.23,104.17 L237.23,104.17 Z M245.61,101.97 C245.61,101.156663 245.736665,100.433336 245.99,99.8 C246.243335,99.1666635 246.583331,98.6300022 247.01,98.19 C247.436669,97.7499978 247.93333,97.4166678 248.5,97.19 C249.066669,96.9633322 249.66333,96.85 250.29,96.85 C250.930003,96.85 251.479998,96.9666655 251.94,97.2 C252.400002,97.4333345 252.796665,97.7033318 253.13,98.01 L252.31,99.07 C252.016665,98.8166654 251.713335,98.6100008 251.4,98.45 C251.086665,98.2899992 250.736669,98.21 250.35,98.21 C249.909998,98.21 249.503335,98.2999991 249.13,98.48 C248.756665,98.6600009 248.436668,98.916665 248.17,99.25 C247.903332,99.583335 247.693334,99.9799977 247.54,100.44 C247.386666,100.900002 247.31,101.409997 247.31,101.97 C247.31,102.530003 247.383333,103.036664 247.53,103.49 C247.676667,103.943336 247.879999,104.333332 248.14,104.66 C248.400001,104.986668 248.716665,105.239999 249.09,105.42 C249.463335,105.600001 249.869998,105.69 250.31,105.69 C250.776669,105.69 251.199998,105.593334 251.58,105.4 C251.960002,105.206666 252.296665,104.976668 252.59,104.71 L253.33,105.79 C252.889998,106.176669 252.400003,106.483332 251.86,106.71 C251.319997,106.936668 250.75667,107.05 250.17,107.05 C249.529997,107.05 248.930003,106.936668 248.37,106.71 C247.809997,106.483332 247.326669,106.153335 246.92,105.72 C246.513331,105.286664 246.193334,104.753336 245.96,104.12 C245.726665,103.486663 245.61,102.770004 245.61,101.97 L245.61,101.97 Z M255.45,92.57 L257.07,92.57 L257.07,102.21 L257.13,102.21 L261.27,97.09 L263.09,97.09 L259.83,100.99 L263.53,106.81 L261.73,106.81 L258.89,102.13 L257.07,104.25 L257.07,106.81 L255.45,106.81 L255.45,92.57 Z M264.27,101.97 C264.27,101.169996 264.393332,100.453336 264.64,99.82 C264.886668,99.1866635 265.213331,98.6500022 265.62,98.21 C266.026669,97.7699978 266.489997,97.4333345 267.01,97.2 C267.530003,96.9666655 268.069997,96.85 268.63,96.85 C269.243336,96.85 269.793331,96.9566656 270.28,97.17 C270.766669,97.3833344 271.173332,97.689998 271.5,98.09 C271.826668,98.490002 272.076666,98.9699972 272.25,99.53 C272.423334,100.090003 272.51,100.716663 272.51,101.41 C272.51,101.770002 272.49,102.069999 272.45,102.31 L265.89,102.31 C265.956667,103.363339 266.279997,104.196664 266.86,104.81 C267.440003,105.423336 268.196662,105.73 269.13,105.73 C269.596669,105.73 270.026665,105.660001 270.42,105.52 C270.813335,105.379999 271.189998,105.196668 271.55,104.97 L272.13,106.05 C271.703331,106.316668 271.230003,106.549999 270.71,106.75 C270.189997,106.950001 269.59667,107.05 268.93,107.05 C268.276663,107.05 267.666669,106.933334 267.1,106.7 C266.53333,106.466665 266.040002,106.133335 265.62,105.7 C265.199998,105.266664 264.870001,104.73667 264.63,104.11 C264.389999,103.48333 264.27,102.770004 264.27,101.97 L264.27,101.97 Z M271.07,101.23 C271.07,100.229995 270.860002,99.4666693 270.44,98.94 C270.019998,98.4133307 269.430004,98.15 268.67,98.15 C268.323332,98.15 267.993335,98.2199993 267.68,98.36 C267.366665,98.5000007 267.083335,98.6999987 266.83,98.96 C266.576665,99.2200013 266.366667,99.5399981 266.2,99.92 C266.033332,100.300002 265.923334,100.736664 265.87,101.23 L271.07,101.23 Z M274.91,97.09 L276.27,97.09 L276.41,98.49 L276.47,98.49 C276.936669,98.023331 277.426664,97.6333349 277.94,97.32 C278.453336,97.0066651 279.049997,96.85 279.73,96.85 C280.756672,96.85 281.506664,97.1699968 281.98,97.81 C282.453336,98.4500032 282.69,99.3966604 282.69,100.65 L282.69,106.81 L281.05,106.81 L281.05,100.87 C281.05,99.9499954 280.903335,99.2866687 280.61,98.88 C280.316665,98.4733313 279.850003,98.27 279.21,98.27 C278.703331,98.27 278.256669,98.3966654 277.87,98.65 C277.483331,98.9033346 277.043336,99.2766642 276.55,99.77 L276.55,106.81 L274.91,106.81 L274.91,97.09 Z M285.15,101.97 C285.15,101.183329 285.266665,100.473337 285.5,99.84 C285.733334,99.2066635 286.043331,98.6700022 286.43,98.23 C286.816669,97.7899978 287.263331,97.4500012 287.77,97.21 C288.276669,96.9699988 288.809997,96.85 289.37,96.85 C289.930003,96.85 290.416665,96.949999 290.83,97.15 C291.243335,97.350001 291.663331,97.6233316 292.09,97.97 L292.01,96.31 L292.01,92.57 L293.67,92.57 L293.67,106.81 L292.31,106.81 L292.17,105.67 L292.11,105.67 C291.723331,106.043335 291.280002,106.366665 290.78,106.64 C290.279997,106.913335 289.743336,107.05 289.17,107.05 C287.943327,107.05 286.96667,106.610004 286.24,105.73 C285.51333,104.849996 285.15,103.596675 285.15,101.97 L285.15,101.97 Z M286.85,101.95 C286.85,103.123339 287.083331,104.036663 287.55,104.69 C288.016669,105.343337 288.676662,105.67 289.53,105.67 C289.983336,105.67 290.409998,105.560001 290.81,105.34 C291.210002,105.119999 291.609998,104.783336 292.01,104.33 L292.01,99.25 C291.596665,98.8766648 291.200002,98.6133341 290.82,98.46 C290.439998,98.3066659 290.050002,98.23 289.65,98.23 C289.263331,98.23 288.900002,98.3199991 288.56,98.5 C288.219998,98.6800009 287.923335,98.9333317 287.67,99.26 C287.416665,99.5866683 287.216667,99.9766644 287.07,100.43 C286.923333,100.883336 286.85,101.389997 286.85,101.95 L286.85,101.95 Z" id="Mobile" fill="#2276AD"></path>
            <rect id="Rectangle-2" stroke="#2276AD" stroke-width="2" fill-opacity="0.1" fill="#2276AD" x="208" y="123.81" width="105" height="71"></rect>
            <path d="M233.76,140.09 L229.8,140.09 L229.8,138.69 L239.4,138.69 L239.4,140.09 L235.44,140.09 L235.44,151.81 L233.76,151.81 L233.76,140.09 Z M240.68,142.09 L242.04,142.09 L242.18,143.85 L242.24,143.85 C242.573335,143.236664 242.976664,142.750002 243.45,142.39 C243.923336,142.029998 244.439997,141.85 245,141.85 C245.386669,141.85 245.733332,141.916666 246.04,142.05 L245.72,143.49 C245.559999,143.436666 245.413334,143.396667 245.28,143.37 C245.146666,143.343333 244.980001,143.33 244.78,143.33 C244.366665,143.33 243.936669,143.496665 243.49,143.83 C243.043331,144.163335 242.653335,144.743329 242.32,145.57 L242.32,151.81 L240.68,151.81 L240.68,142.09 Z M246.64,149.29 C246.64,148.223328 247.116662,147.406669 248.07,146.84 C249.023338,146.27333 250.53999,145.876668 252.62,145.65 C252.62,145.343332 252.59,145.043335 252.53,144.75 C252.47,144.456665 252.363334,144.196668 252.21,143.97 C252.056666,143.743332 251.853335,143.560001 251.6,143.42 C251.346665,143.279999 251.020002,143.21 250.62,143.21 C250.046664,143.21 249.516669,143.316666 249.03,143.53 C248.543331,143.743334 248.106669,143.983332 247.72,144.25 L247.06,143.11 C247.513336,142.816665 248.066663,142.533335 248.72,142.26 C249.373337,141.986665 250.093329,141.85 250.88,141.85 C252.066673,141.85 252.926664,142.21333 253.46,142.94 C253.993336,143.66667 254.26,144.636661 254.26,145.85 L254.26,151.81 L252.9,151.81 L252.76,150.65 L252.72,150.65 C252.253331,151.036669 251.750003,151.366665 251.21,151.64 C250.669997,151.913335 250.100003,152.05 249.5,152.05 C248.673329,152.05 247.990003,151.810002 247.45,151.33 C246.909997,150.849998 246.64,150.170004 246.64,149.29 L246.64,149.29 Z M248.26,149.17 C248.26,149.730003 248.423332,150.129999 248.75,150.37 C249.076668,150.610001 249.479998,150.73 249.96,150.73 C250.426669,150.73 250.869998,150.620001 251.29,150.4 C251.710002,150.179999 252.153331,149.856669 252.62,149.43 L252.62,146.73 C251.806663,146.836667 251.120003,146.963333 250.56,147.11 C249.999997,147.256667 249.550002,147.429999 249.21,147.63 C248.869998,147.830001 248.626667,148.059999 248.48,148.32 C248.333333,148.580001 248.26,148.863332 248.26,149.17 L248.26,149.17 Z M256.66,146.97 C256.66,146.183329 256.776665,145.473336 257.01,144.84 C257.243334,144.206663 257.553331,143.670002 257.94,143.23 C258.326669,142.789998 258.773331,142.450001 259.28,142.21 C259.786669,141.969999 260.319997,141.85 260.88,141.85 C261.440003,141.85 261.926665,141.949999 262.34,142.15 C262.753335,142.350001 263.173331,142.623332 263.6,142.97 L263.52,141.31 L263.52,137.57 L265.18,137.57 L265.18,151.81 L263.82,151.81 L263.68,150.67 L263.62,150.67 C263.233331,151.043335 262.790002,151.366665 262.29,151.64 C261.789997,151.913335 261.253336,152.05 260.68,152.05 C259.453327,152.05 258.47667,151.610004 257.75,150.73 C257.02333,149.849996 256.66,148.596675 256.66,146.97 L256.66,146.97 Z M258.36,146.95 C258.36,148.123339 258.593331,149.036663 259.06,149.69 C259.526669,150.343337 260.186662,150.67 261.04,150.67 C261.493336,150.67 261.919998,150.560001 262.32,150.34 C262.720002,150.119999 263.119998,149.783336 263.52,149.33 L263.52,144.25 C263.106665,143.876665 262.710002,143.613334 262.33,143.46 C261.949998,143.306666 261.560002,143.23 261.16,143.23 C260.773331,143.23 260.410002,143.319999 260.07,143.5 C259.729998,143.680001 259.433335,143.933332 259.18,144.26 C258.926665,144.586668 258.726667,144.976664 258.58,145.43 C258.433333,145.883336 258.36,146.389997 258.36,146.95 L258.36,146.95 Z M269.3,140.09 C268.979998,140.09 268.710001,139.990001 268.49,139.79 C268.269999,139.589999 268.16,139.336668 268.16,139.03 C268.16,138.709998 268.269999,138.453334 268.49,138.26 C268.710001,138.066666 268.979998,137.97 269.3,137.97 C269.620002,137.97 269.889999,138.066666 270.11,138.26 C270.330001,138.453334 270.44,138.709998 270.44,139.03 C270.44,139.336668 270.330001,139.589999 270.11,139.79 C269.889999,139.990001 269.620002,140.09 269.3,140.09 L269.3,140.09 Z M268.46,142.09 L270.1,142.09 L270.1,151.81 L268.46,151.81 L268.46,142.09 Z M273.38,142.09 L274.74,142.09 L274.88,143.49 L274.94,143.49 C275.406669,143.023331 275.896664,142.633335 276.41,142.32 C276.923336,142.006665 277.519997,141.85 278.2,141.85 C279.226672,141.85 279.976664,142.169997 280.45,142.81 C280.923336,143.450003 281.16,144.39666 281.16,145.65 L281.16,151.81 L279.52,151.81 L279.52,145.87 C279.52,144.949995 279.373335,144.286669 279.08,143.88 C278.786665,143.473331 278.320003,143.27 277.68,143.27 C277.173331,143.27 276.726669,143.396665 276.34,143.65 C275.953331,143.903335 275.513336,144.276664 275.02,144.77 L275.02,151.81 L273.38,151.81 L273.38,142.09 Z M285.02,153.45 C285.02,153.970003 285.269997,154.383332 285.77,154.69 C286.270002,154.996668 286.959996,155.15 287.84,155.15 C288.306669,155.15 288.729998,155.093334 289.11,154.98 C289.490002,154.866666 289.813332,154.720001 290.08,154.54 C290.346668,154.359999 290.553333,154.150001 290.7,153.91 C290.846667,153.669999 290.92,153.423335 290.92,153.17 C290.92,152.716664 290.753335,152.403334 290.42,152.23 C290.086665,152.056666 289.600003,151.97 288.96,151.97 L287.28,151.97 C287.093332,151.97 286.890001,151.96 286.67,151.94 C286.449999,151.92 286.233334,151.876667 286.02,151.81 C285.673332,152.063335 285.420001,152.329999 285.26,152.61 C285.099999,152.890001 285.02,153.169999 285.02,153.45 L285.02,153.45 Z M283.58,153.67 C283.58,153.256665 283.706665,152.863335 283.96,152.49 C284.213335,152.116665 284.559998,151.776668 285,151.47 L285,151.39 C284.759999,151.243333 284.556667,151.040001 284.39,150.78 C284.223332,150.519999 284.14,150.196669 284.14,149.81 C284.14,149.396665 284.253332,149.036668 284.48,148.73 C284.706668,148.423332 284.946665,148.183334 285.2,148.01 L285.2,147.93 C284.879998,147.663332 284.590001,147.306669 284.33,146.86 C284.069999,146.413331 283.94,145.89667 283.94,145.31 C283.94,144.776664 284.036666,144.296669 284.23,143.87 C284.423334,143.443331 284.686665,143.080001 285.02,142.78 C285.353335,142.479998 285.743331,142.250001 286.19,142.09 C286.636669,141.929999 287.106664,141.85 287.6,141.85 C287.866668,141.85 288.116665,141.873333 288.35,141.92 C288.583334,141.966667 288.793332,142.023333 288.98,142.09 L292.36,142.09 L292.36,143.35 L290.36,143.35 C290.586668,143.576668 290.776666,143.863332 290.93,144.21 C291.083334,144.556668 291.16,144.936665 291.16,145.35 C291.16,145.870003 291.066668,146.339998 290.88,146.76 C290.693332,147.180002 290.440002,147.533332 290.12,147.82 C289.799998,148.106668 289.423335,148.329999 288.99,148.49 C288.556664,148.650001 288.093336,148.73 287.6,148.73 C287.359999,148.73 287.113335,148.7 286.86,148.64 C286.606665,148.58 286.366668,148.496667 286.14,148.39 C285.966666,148.536667 285.820001,148.699999 285.7,148.88 C285.579999,149.060001 285.52,149.283332 285.52,149.55 C285.52,149.856668 285.639999,150.109999 285.88,150.31 C286.120001,150.510001 286.57333,150.61 287.24,150.61 L289.12,150.61 C290.253339,150.61 291.10333,150.793331 291.67,151.16 C292.236669,151.526668 292.52,152.116663 292.52,152.93 C292.52,153.383336 292.406668,153.813331 292.18,154.22 C291.953332,154.626669 291.626669,154.983332 291.2,155.29 C290.773331,155.596668 290.25667,155.839999 289.65,156.02 C289.04333,156.200001 288.360004,156.29 287.6,156.29 C286.999997,156.29 286.453336,156.233334 285.96,156.12 C285.466664,156.006666 285.043335,155.836668 284.69,155.61 C284.336665,155.383332 284.063334,155.110002 283.87,154.79 C283.676666,154.469998 283.58,154.096669 283.58,153.67 L283.58,153.67 Z M287.6,147.63 C287.880001,147.63 288.143332,147.576667 288.39,147.47 C288.636668,147.363333 288.856666,147.210001 289.05,147.01 C289.243334,146.809999 289.393333,146.566668 289.5,146.28 C289.606667,145.993332 289.66,145.670002 289.66,145.31 C289.66,144.589996 289.460002,144.033335 289.06,143.64 C288.659998,143.246665 288.173336,143.05 287.6,143.05 C287.026664,143.05 286.540002,143.246665 286.14,143.64 C285.739998,144.033335 285.54,144.589996 285.54,145.31 C285.54,145.670002 285.593333,145.993332 285.7,146.28 C285.806667,146.566668 285.956666,146.809999 286.15,147.01 C286.343334,147.210001 286.563332,147.363333 286.81,147.47 C287.056668,147.576667 287.319999,147.63 287.6,147.63 L287.6,147.63 Z M225.99,163.69 L230.01,163.69 C230.730004,163.69 231.389997,163.756666 231.99,163.89 C232.590003,164.023334 233.099998,164.239998 233.52,164.54 C233.940002,164.840001 234.266665,165.236664 234.5,165.73 C234.733334,166.223336 234.85,166.829996 234.85,167.55 C234.85,168.243337 234.733334,168.843331 234.5,169.35 C234.266665,169.856669 233.936669,170.276665 233.51,170.61 C233.083331,170.943335 232.573336,171.193332 231.98,171.36 C231.386664,171.526667 230.730004,171.61 230.01,171.61 L227.65,171.61 L227.65,176.81 L225.99,176.81 L225.99,163.69 Z M229.81,170.25 C230.956672,170.25 231.806664,170.033335 232.36,169.6 C232.913336,169.166664 233.19,168.483338 233.19,167.55 C233.19,166.603329 232.910003,165.946668 232.35,165.58 C231.789997,165.213331 230.943339,165.03 229.81,165.03 L227.65,165.03 L227.65,170.25 L229.81,170.25 Z M237.35,162.57 L238.99,162.57 L238.99,174.97 C238.99,175.236668 239.036666,175.423333 239.13,175.53 C239.223334,175.636667 239.329999,175.69 239.45,175.69 L239.6,175.69 C239.646667,175.69 239.716666,175.676667 239.81,175.65 L240.03,176.89 C239.923333,176.943334 239.796667,176.983333 239.65,177.01 C239.503333,177.036667 239.316668,177.05 239.09,177.05 C238.46333,177.05 238.016668,176.863335 237.75,176.49 C237.483332,176.116665 237.35,175.570004 237.35,174.85 L237.35,162.57 Z M241.97,174.29 C241.97,173.223328 242.446662,172.406669 243.4,171.84 C244.353338,171.27333 245.86999,170.876668 247.95,170.65 C247.95,170.343332 247.92,170.043335 247.86,169.75 C247.8,169.456665 247.693334,169.196668 247.54,168.97 C247.386666,168.743332 247.183335,168.560001 246.93,168.42 C246.676665,168.279999 246.350002,168.21 245.95,168.21 C245.376664,168.21 244.846669,168.316666 244.36,168.53 C243.873331,168.743334 243.436669,168.983332 243.05,169.25 L242.39,168.11 C242.843336,167.816665 243.396663,167.533335 244.05,167.26 C244.703337,166.986665 245.423329,166.85 246.21,166.85 C247.396673,166.85 248.256664,167.21333 248.79,167.94 C249.323336,168.66667 249.59,169.636661 249.59,170.85 L249.59,176.81 L248.23,176.81 L248.09,175.65 L248.05,175.65 C247.583331,176.036669 247.080003,176.366665 246.54,176.64 C245.999997,176.913335 245.430003,177.05 244.83,177.05 C244.003329,177.05 243.320003,176.810002 242.78,176.33 C242.239997,175.849998 241.97,175.170004 241.97,174.29 L241.97,174.29 Z M243.59,174.17 C243.59,174.730003 243.753332,175.129999 244.08,175.37 C244.406668,175.610001 244.809998,175.73 245.29,175.73 C245.756669,175.73 246.199998,175.620001 246.62,175.4 C247.040002,175.179999 247.483331,174.856669 247.95,174.43 L247.95,171.73 C247.136663,171.836667 246.450003,171.963333 245.89,172.11 C245.329997,172.256667 244.880002,172.429999 244.54,172.63 C244.199998,172.830001 243.956667,173.059999 243.81,173.32 C243.663333,173.580001 243.59,173.863332 243.59,174.17 L243.59,174.17 Z M252.97,168.43 L251.53,168.43 L251.53,167.19 L253.05,167.09 L253.25,164.37 L254.63,164.37 L254.63,167.09 L257.25,167.09 L257.25,168.43 L254.63,168.43 L254.63,173.83 C254.63,174.430003 254.739999,174.893332 254.96,175.22 C255.180001,175.546668 255.569997,175.71 256.13,175.71 C256.303334,175.71 256.489999,175.683334 256.69,175.63 C256.890001,175.576666 257.069999,175.516667 257.23,175.45 L257.55,176.69 C257.283332,176.783334 256.993335,176.866666 256.68,176.94 C256.366665,177.013334 256.056668,177.05 255.75,177.05 C255.229997,177.05 254.793335,176.970001 254.44,176.81 C254.086665,176.649999 253.800001,176.430001 253.58,176.15 C253.359999,175.869999 253.203334,175.530002 253.11,175.13 C253.016666,174.729998 252.97,174.290002 252.97,173.81 L252.97,168.43 Z M263.83,163.91 C263.469998,163.749999 263.103335,163.67 262.73,163.67 C261.823329,163.67 261.37,164.29666 261.37,165.55 L261.37,167.09 L263.43,167.09 L263.43,168.43 L261.37,168.43 L261.37,176.81 L259.73,176.81 L259.73,168.43 L258.41,168.43 L258.41,167.19 L259.73,167.09 L259.73,165.55 C259.73,164.549995 259.959998,163.763336 260.42,163.19 C260.880002,162.616664 261.596662,162.33 262.57,162.33 C262.876668,162.33 263.166665,162.36 263.44,162.42 C263.713335,162.48 263.963332,162.556666 264.19,162.65 L263.83,163.91 Z M264.37,171.97 C264.37,171.156663 264.493332,170.433336 264.74,169.8 C264.986668,169.166663 265.316665,168.630002 265.73,168.19 C266.143335,167.749998 266.619997,167.416668 267.16,167.19 C267.700003,166.963332 268.269997,166.85 268.87,166.85 C269.470003,166.85 270.039997,166.963332 270.58,167.19 C271.120003,167.416668 271.596665,167.749998 272.01,168.19 C272.423335,168.630002 272.753332,169.166663 273,169.8 C273.246668,170.433336 273.37,171.156663 273.37,171.97 C273.37,172.770004 273.246668,173.486663 273,174.12 C272.753332,174.753336 272.423335,175.286664 272.01,175.72 C271.596665,176.153335 271.120003,176.483332 270.58,176.71 C270.039997,176.936668 269.470003,177.05 268.87,177.05 C268.269997,177.05 267.700003,176.936668 267.16,176.71 C266.619997,176.483332 266.143335,176.153335 265.73,175.72 C265.316665,175.286664 264.986668,174.753336 264.74,174.12 C264.493332,173.486663 264.37,172.770004 264.37,171.97 L264.37,171.97 Z M266.07,171.97 C266.07,172.530003 266.136666,173.036664 266.27,173.49 C266.403334,173.943336 266.593332,174.333332 266.84,174.66 C267.086668,174.986668 267.383332,175.239999 267.73,175.42 C268.076668,175.600001 268.456665,175.69 268.87,175.69 C269.283335,175.69 269.663332,175.600001 270.01,175.42 C270.356668,175.239999 270.653332,174.986668 270.9,174.66 C271.146668,174.333332 271.336666,173.943336 271.47,173.49 C271.603334,173.036664 271.67,172.530003 271.67,171.97 C271.67,171.409997 271.603334,170.900002 271.47,170.44 C271.336666,169.979998 271.146668,169.583335 270.9,169.25 C270.653332,168.916665 270.356668,168.660001 270.01,168.48 C269.663332,168.299999 269.283335,168.21 268.87,168.21 C268.456665,168.21 268.076668,168.299999 267.73,168.48 C267.383332,168.660001 267.086668,168.916665 266.84,169.25 C266.593332,169.583335 266.403334,169.979998 266.27,170.44 C266.136666,170.900002 266.07,171.409997 266.07,171.97 L266.07,171.97 Z M275.93,167.09 L277.29,167.09 L277.43,168.85 L277.49,168.85 C277.823335,168.236664 278.226664,167.750002 278.7,167.39 C279.173336,167.029998 279.689997,166.85 280.25,166.85 C280.636669,166.85 280.983332,166.916666 281.29,167.05 L280.97,168.49 C280.809999,168.436666 280.663334,168.396667 280.53,168.37 C280.396666,168.343333 280.230001,168.33 280.03,168.33 C279.616665,168.33 279.186669,168.496665 278.74,168.83 C278.293331,169.163335 277.903335,169.743329 277.57,170.57 L277.57,176.81 L275.93,176.81 L275.93,167.09 Z M282.87,167.09 L284.23,167.09 L284.37,168.49 L284.43,168.49 C284.856669,168.023331 285.319997,167.633335 285.82,167.32 C286.320002,167.006665 286.86333,166.85 287.45,166.85 C288.19667,166.85 288.779998,167.013332 289.2,167.34 C289.620002,167.666668 289.929999,168.12333 290.13,168.71 C290.636669,168.149997 291.146664,167.700002 291.66,167.36 C292.173336,167.019998 292.729997,166.85 293.33,166.85 C294.330005,166.85 295.073331,167.169997 295.56,167.81 C296.046669,168.450003 296.29,169.39666 296.29,170.65 L296.29,176.81 L294.65,176.81 L294.65,170.87 C294.65,169.949995 294.503335,169.286669 294.21,168.88 C293.916665,168.473331 293.463336,168.27 292.85,168.27 C292.116663,168.27 291.303338,168.769995 290.41,169.77 L290.41,176.81 L288.77,176.81 L288.77,170.87 C288.77,169.949995 288.623335,169.286669 288.33,168.88 C288.036665,168.473331 287.57667,168.27 286.95,168.27 C286.216663,168.27 285.403338,168.769995 284.51,169.77 L284.51,176.81 L282.87,176.81 L282.87,167.09 Z" id="Trading" fill="#2276AD"></path>
            <rect id="Rectangle-2" stroke="#2276AD" stroke-width="2" fill-opacity="0.1" fill="#2276AD" x="318" y="135.81" width="115" height="59"></rect>
            <path d="M334.04,165.25 C334.04,164.196661 334.186665,163.250004 334.48,162.41 C334.773335,161.569996 335.179997,160.85667 335.7,160.27 C336.220003,159.68333 336.836663,159.233335 337.55,158.92 C338.263337,158.606665 339.039996,158.45 339.88,158.45 C340.680004,158.45 341.379997,158.613332 341.98,158.94 C342.580003,159.266668 343.073331,159.643331 343.46,160.07 L342.52,161.13 C342.173332,160.756665 341.790002,160.460001 341.37,160.24 C340.949998,160.019999 340.460003,159.91 339.9,159.91 C339.27333,159.91 338.706669,160.033332 338.2,160.28 C337.693331,160.526668 337.260002,160.879998 336.9,161.34 C336.539998,161.800002 336.260001,162.356663 336.06,163.01 C335.859999,163.663337 335.76,164.396663 335.76,165.21 C335.76,166.036671 335.856666,166.779997 336.05,167.44 C336.243334,168.100003 336.513332,168.663331 336.86,169.13 C337.206668,169.596669 337.629997,169.956665 338.13,170.21 C338.630003,170.463335 339.19333,170.59 339.82,170.59 C340.460003,170.59 341.016664,170.463335 341.49,170.21 C341.963336,169.956665 342.413331,169.596669 342.84,169.13 L343.78,170.15 C343.259997,170.750003 342.673337,171.216665 342.02,171.55 C341.366663,171.883335 340.620004,172.05 339.78,172.05 C338.953329,172.05 338.190003,171.896668 337.49,171.59 C336.789997,171.283332 336.183336,170.840003 335.67,170.26 C335.156664,169.679997 334.756668,168.966671 334.47,168.12 C334.183332,167.273329 334.04,166.316672 334.04,165.25 L334.04,165.25 Z M345.58,169.29 C345.58,168.223328 346.056662,167.406669 347.01,166.84 C347.963338,166.27333 349.47999,165.876668 351.56,165.65 C351.56,165.343332 351.53,165.043335 351.47,164.75 C351.41,164.456665 351.303334,164.196668 351.15,163.97 C350.996666,163.743332 350.793335,163.560001 350.54,163.42 C350.286665,163.279999 349.960002,163.21 349.56,163.21 C348.986664,163.21 348.456669,163.316666 347.97,163.53 C347.483331,163.743334 347.046669,163.983332 346.66,164.25 L346,163.11 C346.453336,162.816665 347.006663,162.533335 347.66,162.26 C348.313337,161.986665 349.033329,161.85 349.82,161.85 C351.006673,161.85 351.866664,162.21333 352.4,162.94 C352.933336,163.66667 353.2,164.636661 353.2,165.85 L353.2,171.81 L351.84,171.81 L351.7,170.65 L351.66,170.65 C351.193331,171.036669 350.690003,171.366665 350.15,171.64 C349.609997,171.913335 349.040003,172.05 348.44,172.05 C347.613329,172.05 346.930003,171.810002 346.39,171.33 C345.849997,170.849998 345.58,170.170004 345.58,169.29 L345.58,169.29 Z M347.2,169.17 C347.2,169.730003 347.363332,170.129999 347.69,170.37 C348.016668,170.610001 348.419998,170.73 348.9,170.73 C349.366669,170.73 349.809998,170.620001 350.23,170.4 C350.650002,170.179999 351.093331,169.856669 351.56,169.43 L351.56,166.73 C350.746663,166.836667 350.060003,166.963333 349.5,167.11 C348.939997,167.256667 348.490002,167.429999 348.15,167.63 C347.809998,167.830001 347.566667,168.059999 347.42,168.32 C347.273333,168.580001 347.2,168.863332 347.2,169.17 L347.2,169.17 Z M356.04,169.61 C356.466669,169.956668 356.903331,170.236666 357.35,170.45 C357.796669,170.663334 358.31333,170.77 358.9,170.77 C359.540003,170.77 360.019998,170.623335 360.34,170.33 C360.660002,170.036665 360.82,169.676669 360.82,169.25 C360.82,168.996665 360.753334,168.776668 360.62,168.59 C360.486666,168.403332 360.316668,168.240001 360.11,168.1 C359.903332,167.959999 359.666668,167.836667 359.4,167.73 C359.133332,167.623333 358.866668,167.516667 358.6,167.41 C358.253332,167.289999 357.906668,167.153334 357.56,167 C357.213332,166.846666 356.903335,166.660001 356.63,166.44 C356.356665,166.219999 356.133334,165.963335 355.96,165.67 C355.786666,165.376665 355.7,165.023335 355.7,164.61 C355.7,164.223331 355.776666,163.860002 355.93,163.52 C356.083334,163.179998 356.303332,162.886668 356.59,162.64 C356.876668,162.393332 357.226665,162.200001 357.64,162.06 C358.053335,161.919999 358.519997,161.85 359.04,161.85 C359.653336,161.85 360.216664,161.956666 360.73,162.17 C361.243336,162.383334 361.686665,162.643332 362.06,162.95 L361.28,163.99 C360.946665,163.736665 360.600002,163.530001 360.24,163.37 C359.879998,163.209999 359.486669,163.13 359.06,163.13 C358.446664,163.13 357.996668,163.269999 357.71,163.55 C357.423332,163.830001 357.28,164.156665 357.28,164.53 C357.28,164.756668 357.339999,164.953332 357.46,165.12 C357.580001,165.286667 357.739999,165.433333 357.94,165.56 C358.140001,165.686667 358.369999,165.799999 358.63,165.9 C358.890001,166 359.159999,166.103333 359.44,166.21 C359.786668,166.343334 360.136665,166.483333 360.49,166.63 C360.843335,166.776667 361.159999,166.959999 361.44,167.18 C361.720001,167.400001 361.949999,167.669998 362.13,167.99 C362.310001,168.310002 362.4,168.696664 362.4,169.15 C362.4,169.550002 362.323334,169.923332 362.17,170.27 C362.016666,170.616668 361.790002,170.923332 361.49,171.19 C361.189999,171.456668 360.816669,171.666666 360.37,171.82 C359.923331,171.973334 359.413336,172.05 358.84,172.05 C358.146663,172.05 357.48667,171.923335 356.86,171.67 C356.23333,171.416665 355.686669,171.096669 355.22,170.71 L356.04,169.61 Z M364.42,169.61 C364.846669,169.956668 365.283331,170.236666 365.73,170.45 C366.176669,170.663334 366.69333,170.77 367.28,170.77 C367.920003,170.77 368.399998,170.623335 368.72,170.33 C369.040002,170.036665 369.2,169.676669 369.2,169.25 C369.2,168.996665 369.133334,168.776668 369,168.59 C368.866666,168.403332 368.696668,168.240001 368.49,168.1 C368.283332,167.959999 368.046668,167.836667 367.78,167.73 C367.513332,167.623333 367.246668,167.516667 366.98,167.41 C366.633332,167.289999 366.286668,167.153334 365.94,167 C365.593332,166.846666 365.283335,166.660001 365.01,166.44 C364.736665,166.219999 364.513334,165.963335 364.34,165.67 C364.166666,165.376665 364.08,165.023335 364.08,164.61 C364.08,164.223331 364.156666,163.860002 364.31,163.52 C364.463334,163.179998 364.683332,162.886668 364.97,162.64 C365.256668,162.393332 365.606665,162.200001 366.02,162.06 C366.433335,161.919999 366.899997,161.85 367.42,161.85 C368.033336,161.85 368.596664,161.956666 369.11,162.17 C369.623336,162.383334 370.066665,162.643332 370.44,162.95 L369.66,163.99 C369.326665,163.736665 368.980002,163.530001 368.62,163.37 C368.259998,163.209999 367.866669,163.13 367.44,163.13 C366.826664,163.13 366.376668,163.269999 366.09,163.55 C365.803332,163.830001 365.66,164.156665 365.66,164.53 C365.66,164.756668 365.719999,164.953332 365.84,165.12 C365.960001,165.286667 366.119999,165.433333 366.32,165.56 C366.520001,165.686667 366.749999,165.799999 367.01,165.9 C367.270001,166 367.539999,166.103333 367.82,166.21 C368.166668,166.343334 368.516665,166.483333 368.87,166.63 C369.223335,166.776667 369.539999,166.959999 369.82,167.18 C370.100001,167.400001 370.329999,167.669998 370.51,167.99 C370.690001,168.310002 370.78,168.696664 370.78,169.15 C370.78,169.550002 370.703334,169.923332 370.55,170.27 C370.396666,170.616668 370.170001,170.923332 369.87,171.19 C369.569998,171.456668 369.196669,171.666666 368.75,171.82 C368.303331,171.973334 367.793336,172.05 367.22,172.05 C366.526663,172.05 365.86667,171.923335 365.24,171.67 C364.61333,171.416665 364.066669,171.096669 363.6,170.71 L364.42,169.61 Z M372.58,169.29 C372.58,168.223328 373.056662,167.406669 374.01,166.84 C374.963338,166.27333 376.47999,165.876668 378.56,165.65 C378.56,165.343332 378.53,165.043335 378.47,164.75 C378.41,164.456665 378.303334,164.196668 378.15,163.97 C377.996666,163.743332 377.793335,163.560001 377.54,163.42 C377.286665,163.279999 376.960002,163.21 376.56,163.21 C375.986664,163.21 375.456669,163.316666 374.97,163.53 C374.483331,163.743334 374.046669,163.983332 373.66,164.25 L373,163.11 C373.453336,162.816665 374.006663,162.533335 374.66,162.26 C375.313337,161.986665 376.033329,161.85 376.82,161.85 C378.006673,161.85 378.866664,162.21333 379.4,162.94 C379.933336,163.66667 380.2,164.636661 380.2,165.85 L380.2,171.81 L378.84,171.81 L378.7,170.65 L378.66,170.65 C378.193331,171.036669 377.690003,171.366665 377.15,171.64 C376.609997,171.913335 376.040003,172.05 375.44,172.05 C374.613329,172.05 373.930003,171.810002 373.39,171.33 C372.849997,170.849998 372.58,170.170004 372.58,169.29 L372.58,169.29 Z M374.2,169.17 C374.2,169.730003 374.363332,170.129999 374.69,170.37 C375.016668,170.610001 375.419998,170.73 375.9,170.73 C376.366669,170.73 376.809998,170.620001 377.23,170.4 C377.650002,170.179999 378.093331,169.856669 378.56,169.43 L378.56,166.73 C377.746663,166.836667 377.060003,166.963333 376.5,167.11 C375.939997,167.256667 375.490002,167.429999 375.15,167.63 C374.809998,167.830001 374.566667,168.059999 374.42,168.32 C374.273333,168.580001 374.2,168.863332 374.2,169.17 L374.2,169.17 Z M383.3,162.09 L384.66,162.09 L384.8,163.49 L384.86,163.49 C385.326669,163.023331 385.816664,162.633335 386.33,162.32 C386.843336,162.006665 387.439997,161.85 388.12,161.85 C389.146672,161.85 389.896664,162.169997 390.37,162.81 C390.843336,163.450003 391.08,164.39666 391.08,165.65 L391.08,171.81 L389.44,171.81 L389.44,165.87 C389.44,164.949995 389.293335,164.286669 389,163.88 C388.706665,163.473331 388.240003,163.27 387.6,163.27 C387.093331,163.27 386.646669,163.396665 386.26,163.65 C385.873331,163.903335 385.433336,164.276664 384.94,164.77 L384.94,171.81 L383.3,171.81 L383.3,162.09 Z M393.54,166.97 C393.54,166.183329 393.656666,165.473336 393.89,164.84 C394.123335,164.206663 394.433331,163.670002 394.82,163.23 C395.206669,162.789998 395.653331,162.450001 396.16,162.21 C396.666669,161.969999 397.199997,161.85 397.76,161.85 C398.320003,161.85 398.806665,161.949999 399.22,162.15 C399.633335,162.350001 400.053331,162.623332 400.48,162.97 L400.4,161.31 L400.4,157.57 L402.06,157.57 L402.06,171.81 L400.7,171.81 L400.56,170.67 L400.5,170.67 C400.113331,171.043335 399.670003,171.366665 399.17,171.64 C398.669998,171.913335 398.133336,172.05 397.56,172.05 C396.333327,172.05 395.35667,171.610004 394.63,170.73 C393.90333,169.849996 393.54,168.596675 393.54,166.97 L393.54,166.97 Z M395.24,166.95 C395.24,168.123339 395.473331,169.036663 395.94,169.69 C396.406669,170.343337 397.066662,170.67 397.92,170.67 C398.373336,170.67 398.799998,170.560001 399.2,170.34 C399.600002,170.119999 399.999998,169.783336 400.4,169.33 L400.4,164.25 C399.986665,163.876665 399.590002,163.613334 399.21,163.46 C398.829998,163.306666 398.440002,163.23 398.04,163.23 C397.653331,163.23 397.290002,163.319999 396.95,163.5 C396.609998,163.680001 396.313335,163.933332 396.06,164.26 C395.806665,164.586668 395.606667,164.976664 395.46,165.43 C395.313333,165.883336 395.24,166.389997 395.24,166.95 L395.24,166.95 Z M405.34,162.09 L406.7,162.09 L406.84,163.85 L406.9,163.85 C407.233335,163.236664 407.636664,162.750002 408.11,162.39 C408.583336,162.029998 409.099997,161.85 409.66,161.85 C410.046669,161.85 410.393332,161.916666 410.7,162.05 L410.38,163.49 C410.219999,163.436666 410.073334,163.396667 409.94,163.37 C409.806666,163.343333 409.640001,163.33 409.44,163.33 C409.026665,163.33 408.596669,163.496665 408.15,163.83 C407.703331,164.163335 407.313335,164.743329 406.98,165.57 L406.98,171.81 L405.34,171.81 L405.34,162.09 Z M411.3,169.29 C411.3,168.223328 411.776662,167.406669 412.73,166.84 C413.683338,166.27333 415.19999,165.876668 417.28,165.65 C417.28,165.343332 417.25,165.043335 417.19,164.75 C417.13,164.456665 417.023334,164.196668 416.87,163.97 C416.716666,163.743332 416.513335,163.560001 416.26,163.42 C416.006665,163.279999 415.680002,163.21 415.28,163.21 C414.706664,163.21 414.176669,163.316666 413.69,163.53 C413.203331,163.743334 412.766669,163.983332 412.38,164.25 L411.72,163.11 C412.173336,162.816665 412.726663,162.533335 413.38,162.26 C414.033337,161.986665 414.753329,161.85 415.54,161.85 C416.726673,161.85 417.586664,162.21333 418.12,162.94 C418.653336,163.66667 418.92,164.636661 418.92,165.85 L418.92,171.81 L417.56,171.81 L417.42,170.65 L417.38,170.65 C416.913331,171.036669 416.410003,171.366665 415.87,171.64 C415.329997,171.913335 414.760003,172.05 414.16,172.05 C413.333329,172.05 412.650003,171.810002 412.11,171.33 C411.569997,170.849998 411.3,170.170004 411.3,169.29 L411.3,169.29 Z M412.92,169.17 C412.92,169.730003 413.083332,170.129999 413.41,170.37 C413.736668,170.610001 414.139998,170.73 414.62,170.73 C415.086669,170.73 415.529998,170.620001 415.95,170.4 C416.370002,170.179999 416.813331,169.856669 417.28,169.43 L417.28,166.73 C416.466663,166.836667 415.780003,166.963333 415.22,167.11 C414.659997,167.256667 414.210002,167.429999 413.87,167.63 C413.529998,167.830001 413.286667,168.059999 413.14,168.32 C412.993333,168.580001 412.92,168.863332 412.92,169.17 L412.92,169.17 Z" id="Cassandra" fill="#2276AD"></path>
            <rect id="Rectangle-2" stroke="#2FC98E" stroke-width="2" fill-opacity="0.109999999" fill="#2FC98E" x="318" y="56.81" width="115" height="74"></rect>
            <path d="M336.85,101.05 C336.023329,101.05 335.26667,100.890002 334.58,100.57 C333.89333,100.249998 333.303336,99.7933363 332.81,99.2 C332.316664,98.6066637 331.933335,97.8866709 331.66,97.04 C331.386665,96.1933291 331.25,95.2433386 331.25,94.19 C331.25,93.1366614 331.386665,92.1933375 331.66,91.36 C331.933335,90.5266625 332.316664,89.8200029 332.81,89.24 C333.303336,88.6599971 333.89333,88.2166682 334.58,87.91 C335.26667,87.6033318 336.023329,87.45 336.85,87.45 C337.676671,87.45 338.43333,87.6066651 339.12,87.92 C339.80667,88.2333349 340.399998,88.6799971 340.9,89.26 C341.400003,89.8400029 341.786665,90.5466625 342.06,91.38 C342.333335,92.2133375 342.47,93.1499948 342.47,94.19 C342.47,95.2433386 342.333335,96.1933291 342.06,97.04 C341.786665,97.8866709 341.400003,98.6066637 340.9,99.2 C340.399998,99.7933363 339.80667,100.249998 339.12,100.57 C338.43333,100.890002 337.676671,101.05 336.85,101.05 L336.85,101.05 Z M336.85,99.59 C337.43667,99.59 337.966664,99.4633346 338.44,99.21 C338.913336,98.9566654 339.319998,98.5933357 339.66,98.12 C340.000002,97.6466643 340.263332,97.0800033 340.45,96.42 C340.636668,95.7599967 340.73,95.0166708 340.73,94.19 C340.73,93.3766626 340.636668,92.6433366 340.45,91.99 C340.263332,91.3366634 340.000002,90.7833356 339.66,90.33 C339.319998,89.8766644 338.913336,89.5266679 338.44,89.28 C337.966664,89.0333321 337.43667,88.91 336.85,88.91 C336.26333,88.91 335.733336,89.0333321 335.26,89.28 C334.786664,89.5266679 334.380002,89.8766644 334.04,90.33 C333.699998,90.7833356 333.436668,91.3366634 333.25,91.99 C333.063332,92.6433366 332.97,93.3766626 332.97,94.19 C332.97,95.0166708 333.063332,95.7599967 333.25,96.42 C333.436668,97.0800033 333.699998,97.6466643 334.04,98.12 C334.380002,98.5933357 334.786664,98.9566654 335.26,99.21 C335.733336,99.4633346 336.26333,99.59 336.85,99.59 L336.85,99.59 Z M346.77,101.63 L346.77,104.91 L345.13,104.91 L345.13,91.09 L346.49,91.09 L346.63,92.21 L346.69,92.21 C347.130002,91.8366648 347.613331,91.516668 348.14,91.25 C348.666669,90.983332 349.216664,90.85 349.79,90.85 C350.41667,90.85 350.969998,90.9666655 351.45,91.2 C351.930002,91.4333345 352.329998,91.7666645 352.65,92.2 C352.970002,92.6333355 353.213333,93.1533303 353.38,93.76 C353.546668,94.3666697 353.63,95.0499962 353.63,95.81 C353.63,96.6366708 353.516668,97.3733301 353.29,98.02 C353.063332,98.6666699 352.756669,99.2166644 352.37,99.67 C351.983331,100.123336 351.536669,100.466665 351.03,100.7 C350.523331,100.933334 349.990003,101.05 349.43,101.05 C348.976664,101.05 348.526669,100.950001 348.08,100.75 C347.633331,100.549999 347.183336,100.276668 346.73,99.93 L346.77,101.63 Z M346.77,98.65 C347.210002,99.0233352 347.636665,99.2866659 348.05,99.44 C348.463335,99.5933341 348.829998,99.67 349.15,99.67 C349.550002,99.67 349.919998,99.5800009 350.26,99.4 C350.600002,99.2199991 350.893332,98.9666683 351.14,98.64 C351.386668,98.3133317 351.579999,97.9100024 351.72,97.43 C351.860001,96.9499976 351.93,96.410003 351.93,95.81 C351.93,95.276664 351.883334,94.7900022 351.79,94.35 C351.696666,93.9099978 351.546668,93.5333349 351.34,93.22 C351.133332,92.9066651 350.866668,92.6633342 350.54,92.49 C350.213332,92.3166658 349.823336,92.23 349.37,92.23 C348.956665,92.23 348.540002,92.3433322 348.12,92.57 C347.699998,92.7966678 347.250002,93.1233312 346.77,93.55 L346.77,98.65 Z M355.51,95.97 C355.51,95.169996 355.633332,94.4533365 355.88,93.82 C356.126668,93.1866635 356.453331,92.6500022 356.86,92.21 C357.266669,91.7699978 357.729997,91.4333345 358.25,91.2 C358.770003,90.9666655 359.309997,90.85 359.87,90.85 C360.483336,90.85 361.033331,90.9566656 361.52,91.17 C362.006669,91.3833344 362.413332,91.689998 362.74,92.09 C363.066668,92.490002 363.316666,92.9699972 363.49,93.53 C363.663334,94.0900028 363.75,94.7166632 363.75,95.41 C363.75,95.7700018 363.73,96.0699988 363.69,96.31 L357.13,96.31 C357.196667,97.3633386 357.519997,98.1966636 358.1,98.81 C358.680003,99.4233364 359.436662,99.73 360.37,99.73 C360.836669,99.73 361.266665,99.6600007 361.66,99.52 C362.053335,99.3799993 362.429998,99.1966678 362.79,98.97 L363.37,100.05 C362.943331,100.316668 362.470003,100.549999 361.95,100.75 C361.429997,100.950001 360.83667,101.05 360.17,101.05 C359.516663,101.05 358.90667,100.933334 358.34,100.7 C357.773331,100.466665 357.280002,100.133335 356.86,99.7 C356.439998,99.2666645 356.110001,98.7366698 355.87,98.11 C355.629999,97.4833302 355.51,96.770004 355.51,95.97 L355.51,95.97 Z M362.31,95.23 C362.31,94.229995 362.100002,93.4666693 361.68,92.94 C361.259998,92.4133307 360.670004,92.15 359.91,92.15 C359.563332,92.15 359.233335,92.2199993 358.92,92.36 C358.606665,92.5000007 358.323335,92.6999987 358.07,92.96 C357.816665,93.2200013 357.606668,93.5399981 357.44,93.92 C357.273333,94.3000019 357.163334,94.7366642 357.11,95.23 L362.31,95.23 Z M366.15,91.09 L367.51,91.09 L367.65,92.49 L367.71,92.49 C368.176669,92.023331 368.666664,91.6333349 369.18,91.32 C369.693336,91.0066651 370.289997,90.85 370.97,90.85 C371.996672,90.85 372.746664,91.1699968 373.22,91.81 C373.693336,92.4500032 373.93,93.3966604 373.93,94.65 L373.93,100.81 L372.29,100.81 L372.29,94.87 C372.29,93.9499954 372.143335,93.2866687 371.85,92.88 C371.556665,92.4733313 371.090003,92.27 370.45,92.27 C369.943331,92.27 369.496669,92.3966654 369.11,92.65 C368.723331,92.9033346 368.283336,93.2766642 367.79,93.77 L367.79,100.81 L366.15,100.81 L366.15,91.09 Z M377.29,97.95 C377.756669,98.4433358 378.306664,98.8399985 378.94,99.14 C379.573336,99.4400015 380.229997,99.59 380.91,99.59 C381.776671,99.59 382.449998,99.3933353 382.93,99 C383.410002,98.6066647 383.65,98.0900032 383.65,97.45 C383.65,97.116665 383.593334,96.8333345 383.48,96.6 C383.366666,96.3666655 383.213334,96.1666675 383.02,96 C382.826666,95.8333325 382.596668,95.683334 382.33,95.55 C382.063332,95.416666 381.776668,95.2766674 381.47,95.13 L379.59,94.31 C379.283332,94.176666 378.970002,94.0166676 378.65,93.83 C378.329998,93.6433324 378.043335,93.416668 377.79,93.15 C377.536665,92.883332 377.330001,92.5666685 377.17,92.2 C377.009999,91.8333315 376.93,91.4100024 376.93,90.93 C376.93,90.4366642 377.033332,89.9766688 377.24,89.55 C377.446668,89.1233312 377.733331,88.7533349 378.1,88.44 C378.466668,88.1266651 378.899998,87.8833342 379.4,87.71 C379.900003,87.5366658 380.449997,87.45 381.05,87.45 C381.836671,87.45 382.56333,87.5999985 383.23,87.9 C383.89667,88.2000015 384.463331,88.5899976 384.93,89.07 L384.03,90.15 C383.629998,89.7633314 383.186669,89.4600011 382.7,89.24 C382.213331,89.0199989 381.663336,88.91 381.05,88.91 C380.316663,88.91 379.726669,89.0799983 379.28,89.42 C378.833331,89.7600017 378.61,90.229997 378.61,90.83 C378.61,91.1500016 378.673333,91.4199989 378.8,91.64 C378.926667,91.8600011 379.096666,92.0533325 379.31,92.22 C379.523334,92.3866675 379.756665,92.5333327 380.01,92.66 C380.263335,92.7866673 380.523332,92.9033328 380.79,93.01 L382.65,93.81 C383.023335,93.9700008 383.376665,94.1533323 383.71,94.36 C384.043335,94.5666677 384.329999,94.8066653 384.57,95.08 C384.810001,95.3533347 384.999999,95.6733315 385.14,96.04 C385.280001,96.4066685 385.35,96.8299976 385.35,97.31 C385.35,97.8300026 385.246668,98.3166644 385.04,98.77 C384.833332,99.2233356 384.536669,99.6199983 384.15,99.96 C383.763331,100.300002 383.296669,100.566666 382.75,100.76 C382.203331,100.953334 381.583337,101.05 380.89,101.05 C379.969995,101.05 379.116671,100.876668 378.33,100.53 C377.543329,100.183332 376.863336,99.710003 376.29,99.11 L377.29,97.95 Z M388.05,92.43 L386.61,92.43 L386.61,91.19 L388.13,91.09 L388.33,88.37 L389.71,88.37 L389.71,91.09 L392.33,91.09 L392.33,92.43 L389.71,92.43 L389.71,97.83 C389.71,98.430003 389.819999,98.8933317 390.04,99.22 C390.260001,99.5466683 390.649997,99.71 391.21,99.71 C391.383334,99.71 391.569999,99.6833336 391.77,99.63 C391.970001,99.5766664 392.149999,99.516667 392.31,99.45 L392.63,100.69 C392.363332,100.783334 392.073335,100.866666 391.76,100.94 C391.446665,101.013334 391.136668,101.05 390.83,101.05 C390.309997,101.05 389.873335,100.970001 389.52,100.81 C389.166665,100.649999 388.880001,100.430001 388.66,100.15 C388.439999,99.8699986 388.283334,99.530002 388.19,99.13 C388.096666,98.729998 388.05,98.2900024 388.05,97.81 L388.05,92.43 Z M393.69,98.29 C393.69,97.223328 394.166662,96.4066695 395.12,95.84 C396.073338,95.2733305 397.58999,94.8766678 399.67,94.65 C399.67,94.3433318 399.64,94.0433348 399.58,93.75 C399.52,93.4566652 399.413334,93.1966678 399.26,92.97 C399.106666,92.7433322 398.903335,92.5600007 398.65,92.42 C398.396665,92.2799993 398.070002,92.21 397.67,92.21 C397.096664,92.21 396.566669,92.3166656 396.08,92.53 C395.593331,92.7433344 395.156669,92.983332 394.77,93.25 L394.11,92.11 C394.563336,91.8166652 395.116663,91.5333347 395.77,91.26 C396.423337,90.9866653 397.143329,90.85 397.93,90.85 C399.116673,90.85 399.976664,91.2133297 400.51,91.94 C401.043336,92.6666703 401.31,93.6366606 401.31,94.85 L401.31,100.81 L399.95,100.81 L399.81,99.65 L399.77,99.65 C399.303331,100.036669 398.800003,100.366665 398.26,100.64 C397.719997,100.913335 397.150003,101.05 396.55,101.05 C395.723329,101.05 395.040003,100.810002 394.5,100.33 C393.959997,99.8499976 393.69,99.1700044 393.69,98.29 L393.69,98.29 Z M395.31,98.17 C395.31,98.7300028 395.473332,99.1299988 395.8,99.37 C396.126668,99.6100012 396.529998,99.73 397.01,99.73 C397.476669,99.73 397.919998,99.6200011 398.34,99.4 C398.760002,99.1799989 399.203331,98.8566688 399.67,98.43 L399.67,95.73 C398.856663,95.8366672 398.170003,95.9633326 397.61,96.11 C397.049997,96.2566674 396.600002,96.429999 396.26,96.63 C395.919998,96.830001 395.676667,97.0599987 395.53,97.32 C395.383333,97.5800013 395.31,97.8633318 395.31,98.17 L395.31,98.17 Z M403.69,95.97 C403.69,95.1566626 403.816665,94.4333365 404.07,93.8 C404.323335,93.1666635 404.663331,92.6300022 405.09,92.19 C405.516669,91.7499978 406.01333,91.4166678 406.58,91.19 C407.14667,90.9633322 407.74333,90.85 408.37,90.85 C409.010003,90.85 409.559998,90.9666655 410.02,91.2 C410.480002,91.4333345 410.876665,91.7033318 411.21,92.01 L410.39,93.07 C410.096665,92.8166654 409.793335,92.6100008 409.48,92.45 C409.166665,92.2899992 408.816669,92.21 408.43,92.21 C407.989998,92.21 407.583335,92.2999991 407.21,92.48 C406.836665,92.6600009 406.516668,92.916665 406.25,93.25 C405.983332,93.583335 405.773334,93.9799977 405.62,94.44 C405.466666,94.9000023 405.39,95.4099972 405.39,95.97 C405.39,96.5300028 405.463333,97.0366644 405.61,97.49 C405.756667,97.9433356 405.959999,98.3333317 406.22,98.66 C406.480001,98.9866683 406.796665,99.2399991 407.17,99.42 C407.543335,99.6000009 407.949998,99.69 408.39,99.69 C408.856669,99.69 409.279998,99.5933343 409.66,99.4 C410.040002,99.2066657 410.376665,98.976668 410.67,98.71 L411.41,99.79 C410.969998,100.176669 410.480003,100.483332 409.94,100.71 C409.399997,100.936668 408.83667,101.05 408.25,101.05 C407.609997,101.05 407.010003,100.936668 406.45,100.71 C405.889997,100.483332 405.406669,100.153335 405,99.72 C404.593331,99.2866645 404.273335,98.7533365 404.04,98.12 C403.806666,97.4866635 403.69,96.770004 403.69,95.97 L403.69,95.97 Z M413.53,86.57 L415.15,86.57 L415.15,96.21 L415.21,96.21 L419.35,91.09 L421.17,91.09 L417.91,94.99 L421.61,100.81 L419.81,100.81 L416.97,96.13 L415.15,98.25 L415.15,100.81 L413.53,100.81 L413.53,86.57 Z" id="OpenStack" fill="#1C9E6C"></path>
            <path d="M23.48,112.01 L20.4,112.01 L20.4,108.97 L23.8,108.97 L24.44,103.81 L21.2,103.81 L21.2,100.77 L24.84,100.77 L25.72,93.81 L28.48,93.81 L27.64,100.77 L32.32,100.77 L33.24,93.81 L35.96,93.81 L35.12,100.77 L38.32,100.77 L38.32,103.81 L34.76,103.81 L34.12,108.97 L37.52,108.97 L37.52,112.01 L33.76,112.01 L32.84,119.81 L30.04,119.81 L30.96,112.01 L26.28,112.01 L25.32,119.81 L22.52,119.81 L23.48,112.01 Z M31.32,108.97 L31.96,103.81 L27.24,103.81 L26.6,108.97 L31.32,108.97 Z M41.48,106.81 C41.48,104.676656 41.7999968,102.763342 42.44,101.07 C43.0800032,99.3766582 43.9599944,97.9433392 45.08,96.77 C46.2000056,95.5966608 47.5199924,94.7033364 49.04,94.09 C50.5600076,93.4766636 52.1999912,93.17 53.96,93.17 C54.8666712,93.17 55.7066628,93.2633324 56.48,93.45 C57.2533372,93.6366676 57.9599968,93.8833318 58.6,94.19 C59.2400032,94.4966682 59.826664,94.849998 60.36,95.25 C60.893336,95.650002 61.359998,96.0633312 61.76,96.49 L59.2,99.37 C58.53333,98.7299968 57.8066706,98.210002 57.02,97.81 C56.2333294,97.409998 55.2266728,97.21 54,97.21 C52.8266608,97.21 51.7666714,97.4299978 50.82,97.87 C49.8733286,98.3100022 49.0600034,98.9366626 48.38,99.75 C47.6999966,100.563337 47.1733352,101.556661 46.8,102.73 C46.4266648,103.903339 46.24,105.223326 46.24,106.69 C46.24,109.676682 46.9133266,112.016658 48.26,113.71 C49.6066734,115.403342 51.5999868,116.25 54.24,116.25 C54.9866704,116.25 55.69333,116.150001 56.36,115.95 C57.02667,115.749999 57.5733312,115.463335 58,115.09 L58,109.45 L53.04,109.45 L53.04,105.65 L62.16,105.65 L62.16,117.17 C61.2533288,118.050004 60.066674,118.789997 58.6,119.39 C57.133326,119.990003 55.4933424,120.29 53.68,120.29 C51.946658,120.29 50.3333408,119.99667 48.84,119.41 C47.3466592,118.82333 46.0533388,117.956672 44.96,116.81 C43.8666612,115.663328 43.0133364,114.250008 42.4,112.57 C41.7866636,110.889992 41.48,108.970011 41.48,106.81 L41.48,106.81 Z M67.96,93.65 L72.6,93.65 L72.6,119.81 L67.96,119.81 L67.96,93.65 Z M79.24,93.65 L95.04,93.65 L95.04,97.57 L83.88,97.57 L83.88,104.97 L93.4,104.97 L93.4,108.89 L83.88,108.89 L83.88,119.81 L79.24,119.81 L79.24,93.65 Z M99.64,93.65 L115.4,93.65 L115.4,97.57 L104.28,97.57 L104.28,104.25 L113.68,104.25 L113.68,108.17 L104.28,108.17 L104.28,115.89 L115.8,115.89 L115.8,119.81 L99.64,119.81 L99.64,93.65 Z M121.16,93.65 L136.92,93.65 L136.92,97.57 L125.8,97.57 L125.8,104.25 L135.2,104.25 L135.2,108.17 L125.8,108.17 L125.8,115.89 L137.32,115.89 L137.32,119.81 L121.16,119.81 L121.16,93.65 Z" id="#GIFEE" fill="#2FC98E"></path>
            <g id="tectonic-horizontal-color" transform="translate(24.000000, 138.810000)">
                <g id="Layer_1">
                    <g id="Group">
                        <path d="M14.3511241,7.89625743 L10.2494916,6.07570297 L6.14895194,7.8949505 L10.2494916,10.2563564 L10.2494916,14.9763366 L13.8823474,12.3454851 L14.3511241,7.89625743 Z" id="Shape" fill="#FFFFFF"></path>
                        <path d="M3.16888695,6.1800396 L6.14895194,7.8949505 L10.2494916,6.07570297 L14.3511241,7.89625743 L13.8823474,12.3454851 L10.2494916,14.9763366 L10.2494916,18.4057228 L16.5217024,13.8639208 L17.3316262,6.18025743 L10.2494916,3.03774257 L3.16888695,6.1800396 Z" id="Shape" fill="#68C28D"></path>
                        <path d="M10.2494916,0.0252673267 L0.212861785,4.47928713 L1.36152867,15.3710297 L10.2492731,21.8074455 L19.1383288,15.3710297 L20.2867771,4.47994059 L10.2494916,0.0252673267 L10.2494916,0.0252673267 Z M16.5214838,13.8643564 L10.2494916,18.4057228 L10.2494916,10.2563564 L3.16888695,6.1800396 L10.2494916,3.03774257 L17.3316262,6.18025743 L16.5214838,13.8643564 L16.5214838,13.8643564 Z" id="Shape" fill="#243A4C"></path>
                    </g>
                    <g id="Group" transform="translate(23.165656, 2.613861)" fill="#243A4C">
                        <path d="M4.36628912,3.34639604 L0.10905342,3.34639604 L0.10905342,0.423445545 L12.0758632,0.423445545 L12.0758632,3.34639604 L7.84244883,3.34639604 L7.84244883,15.792297 L4.36628912,15.792297 L4.36628912,3.34639604 L4.36628912,3.34639604 Z" id="Shape"></path>
                        <path d="M12.9080785,0.423445545 L22.5806142,0.423445545 L22.5806142,3.34639604 L16.4082781,3.34639604 L16.4082781,6.43445545 L21.6583588,6.43445545 L21.6583588,9.33388119 L16.4082781,9.33388119 L16.4082781,12.8697822 L22.8175158,12.8697822 L22.8175158,15.792297 L12.9082971,15.792297 L12.9082971,0.423445545 L12.9080785,0.423445545 Z" id="Shape"></path>
                        <path d="M30.00477,0.140930693 C31.920526,0.140930693 33.5287908,1.08366337 34.5690599,2.14489109 L32.6533038,4.28934653 C31.8728834,3.58207921 31.1396686,3.13423762 30.0519754,3.13423762 C27.8997549,3.13423762 26.2209004,4.99639604 26.2209004,8.08423762 C26.2209004,11.2428713 27.7104958,13.081505 29.9573459,13.081505 C31.2342981,13.081505 32.1331693,12.5393465 32.8899869,11.7142376 L34.805743,13.8125149 C33.5285722,15.2971881 31.8252409,16.0750297 29.910359,16.0750297 C25.9134091,16.0750297 22.6498926,13.3646733 22.6498926,8.20229703 C22.6501112,3.11049505 26.0314228,0.140930693 30.00477,0.140930693 L30.00477,0.140930693 Z" id="Shape"></path>
                        <path d="M39.1324756,3.34639604 L34.875677,3.34639604 L34.875677,0.423445545 L46.8418312,0.423445545 L46.8418312,3.34639604 L42.6086353,3.34639604 L42.6086353,15.792297 L39.1324756,15.792297 L39.1324756,3.34639604 L39.1324756,3.34639604 Z" id="Shape"></path>
                        <path d="M45.9971589,8.03740594 C45.9971589,3.01617822 48.8589917,0.140930693 52.997558,0.140930693 C57.1597271,0.140930693 59.9977385,3.03970297 59.9977385,8.03740594 C59.9977385,13.0577624 57.1599456,16.0748119 52.997558,16.0748119 C48.8587731,16.0750297 45.9971589,13.0577624 45.9971589,8.03740594 L45.9971589,8.03740594 Z M56.4265122,8.03740594 C56.4265122,4.97308911 55.1019175,3.13423762 52.9973395,3.13423762 C50.9159271,3.13423762 49.5681667,4.97287129 49.5681667,8.03740594 C49.5681667,11.1252475 50.9159271,13.081505 52.9973395,13.081505 C55.1019175,13.0817228 56.4265122,11.1252475 56.4265122,8.03740594 L56.4265122,8.03740594 Z" id="Shape"></path>
                        <path d="M74.1410273,0.423445545 L77.6414454,0.423445545 L77.6414454,15.792297 L74.1410273,15.792297 L74.1410273,0.423445545 L74.1410273,0.423445545 Z" id="Shape"></path>
                        <path d="M85.8438361,0.140930693 C87.7593736,0.140930693 89.3674199,1.08366337 90.4079075,2.14489109 L88.49237,4.28934653 C87.7119496,3.58207921 86.9789533,3.13423762 85.8906045,3.13423762 C83.738821,3.13423762 82.059748,4.99639604 82.059748,8.08423762 C82.059748,11.2428713 83.549562,13.081505 85.7964121,13.081505 C87.0733642,13.081505 87.9717983,12.5393465 88.728616,11.7142376 L90.6445906,13.8125149 C89.3672013,15.2971881 87.6645256,16.0750297 85.748988,16.0750297 C81.7518196,16.0750297 78.4885217,13.3646733 78.4885217,8.20229703 C78.4885217,3.11049505 81.8702704,0.140930693 85.8438361,0.140930693 L85.8438361,0.140930693 Z" id="Shape"></path>
                        <path d="M69.6853538,0.423445545 L69.6853538,10.2818416 L64.4824785,0.423445545 L64.2457954,0.423445545 L60.9110336,0.423445545 L60.9110336,15.792297 L64.2457954,15.792297 L64.2457954,5.9589505 L69.4248494,15.792297 L72.9960757,15.792297 L72.9960757,0.423445545 L69.6853538,0.423445545 Z" id="Shape"></path>
                    </g>
                </g>
            </g>
            <path d="M20.5,130.31 L136.5,130.31" id="Line" stroke="#CCCCCC" stroke-linecap="square"></path>
            <path d="M208.785156,212.185 L208.785156,220.989687 L431.794486,220.989687 L431.794486,211.61468" id="Path-36" stroke="#CCCCCC" stroke-linecap="square"></path>
            <path d="M285.735,236.935 C285.735,236.134996 285.852499,235.417503 286.0875,234.7825 C286.322501,234.147497 286.644998,233.610002 287.055,233.17 C287.465002,232.729998 287.944997,232.395001 288.495,232.165 C289.045003,231.934999 289.634997,231.82 290.265,231.82 C290.865003,231.82 291.402498,231.944999 291.8775,232.195 C292.352502,232.445001 292.744998,232.734998 293.055,233.065 L292.08,234.145 C291.829999,233.894999 291.562501,233.697501 291.2775,233.5525 C290.992499,233.407499 290.660002,233.335 290.28,233.335 C289.869998,233.335 289.497502,233.417499 289.1625,233.5825 C288.827498,233.747501 288.537501,233.982498 288.2925,234.2875 C288.047499,234.592502 287.857501,234.964998 287.7225,235.405 C287.587499,235.845002 287.52,236.339997 287.52,236.89 C287.52,238.010006 287.762498,238.887497 288.2475,239.5225 C288.732502,240.157503 289.389996,240.475 290.22,240.475 C290.660002,240.475 291.042498,240.390001 291.3675,240.22 C291.692502,240.049999 291.994999,239.810002 292.275,239.5 L293.25,240.565 C292.849998,241.025002 292.395003,241.377499 291.885,241.6225 C291.374997,241.867501 290.810003,241.99 290.19,241.99 C289.559997,241.99 288.975003,241.880001 288.435,241.66 C287.894997,241.439999 287.425002,241.115002 287.025,240.685 C286.624998,240.254998 286.310001,239.725003 286.08,239.095 C285.849999,238.464997 285.735,237.745004 285.735,236.935 L285.735,236.935 Z M294.255,238.135 C294.255,237.524997 294.349999,236.980002 294.54,236.5 C294.730001,236.019998 294.987498,235.615002 295.3125,235.285 C295.637502,234.954998 296.009998,234.702501 296.43,234.5275 C296.850002,234.352499 297.289998,234.265 297.75,234.265 C298.210002,234.265 298.652498,234.352499 299.0775,234.5275 C299.502502,234.702501 299.874998,234.954998 300.195,235.285 C300.515002,235.615002 300.772499,236.019998 300.9675,236.5 C301.162501,236.980002 301.26,237.524997 301.26,238.135 C301.26,238.745003 301.162501,239.289998 300.9675,239.77 C300.772499,240.250002 300.515002,240.654998 300.195,240.985 C299.874998,241.315002 299.502502,241.564999 299.0775,241.735 C298.652498,241.905001 298.210002,241.99 297.75,241.99 C297.289998,241.99 296.850002,241.905001 296.43,241.735 C296.009998,241.564999 295.637502,241.315002 295.3125,240.985 C294.987498,240.654998 294.730001,240.250002 294.54,239.77 C294.349999,239.289998 294.255,238.745003 294.255,238.135 L294.255,238.135 Z M296.025,238.135 C296.025,238.875004 296.177498,239.467498 296.4825,239.9125 C296.787502,240.357502 297.209997,240.58 297.75,240.58 C298.290003,240.58 298.714998,240.357502 299.025,239.9125 C299.335002,239.467498 299.49,238.875004 299.49,238.135 C299.49,237.384996 299.335002,236.787502 299.025,236.3425 C298.714998,235.897498 298.290003,235.675 297.75,235.675 C297.209997,235.675 296.787502,235.897498 296.4825,236.3425 C296.177498,236.787502 296.025,237.384996 296.025,238.135 L296.025,238.135 Z M302.97,234.445 L304.395,234.445 L304.515,235.435 L304.575,235.435 C304.905002,235.114998 305.262498,234.840001 305.6475,234.61 C306.032502,234.379999 306.479997,234.265 306.99,234.265 C307.780004,234.265 308.354998,234.517497 308.715,235.0225 C309.075002,235.527503 309.255,236.249995 309.255,237.19 L309.255,241.81 L307.53,241.81 L307.53,237.415 C307.53,236.804997 307.440001,236.375001 307.26,236.125 C307.079999,235.874999 306.785002,235.75 306.375,235.75 C306.054998,235.75 305.772501,235.827499 305.5275,235.9825 C305.282499,236.137501 305.005002,236.364999 304.695,236.665 L304.695,241.81 L302.97,241.81 L302.97,234.445 Z M311.625,235.81 L310.575,235.81 L310.575,234.52 L311.715,234.445 L311.925,232.435 L313.365,232.435 L313.365,234.445 L315.24,234.445 L315.24,235.81 L313.365,235.81 L313.365,239.32 C313.365,240.180004 313.709997,240.61 314.4,240.61 C314.530001,240.61 314.662499,240.595 314.7975,240.565 C314.932501,240.535 315.054999,240.495 315.165,240.445 L315.465,241.72 C315.264999,241.79 315.037501,241.8525 314.7825,241.9075 C314.527499,241.9625 314.255001,241.99 313.965,241.99 C313.534998,241.99 313.172501,241.925001 312.8775,241.795 C312.582499,241.664999 312.342501,241.482501 312.1575,241.2475 C311.972499,241.012499 311.8375,240.732502 311.7525,240.4075 C311.6675,240.082498 311.625,239.720002 311.625,239.32 L311.625,235.81 Z M316.245,239.83 C316.245,239.039996 316.589997,238.430002 317.28,238 C317.970003,237.569998 319.069992,237.270001 320.58,237.1 C320.58,236.909999 320.555,236.727501 320.505,236.5525 C320.455,236.377499 320.377501,236.222501 320.2725,236.0875 C320.167499,235.952499 320.032501,235.8475 319.8675,235.7725 C319.702499,235.6975 319.495001,235.66 319.245,235.66 C318.874998,235.66 318.517502,235.729999 318.1725,235.87 C317.827498,236.010001 317.495002,236.179999 317.175,236.38 L316.545,235.225 C316.955002,234.964999 317.412497,234.740001 317.9175,234.55 C318.422503,234.359999 318.969997,234.265 319.56,234.265 C320.490005,234.265 321.179998,234.537497 321.63,235.0825 C322.080002,235.627503 322.305,236.414995 322.305,237.445 L322.305,241.81 L320.895,241.81 L320.76,241 L320.715,241 C320.384998,241.280001 320.032502,241.514999 319.6575,241.705 C319.282498,241.895001 318.875002,241.99 318.435,241.99 C317.784997,241.99 317.257502,241.792502 316.8525,241.3975 C316.447498,241.002498 316.245,240.480003 316.245,239.83 L316.245,239.83 Z M317.925,239.695 C317.925,240.025002 318.022499,240.264999 318.2175,240.415 C318.412501,240.565001 318.664998,240.64 318.975,240.64 C319.275001,240.64 319.549999,240.570001 319.8,240.43 C320.050001,240.289999 320.309999,240.090001 320.58,239.83 L320.58,238.18 C320.079997,238.24 319.660002,238.32 319.32,238.42 C318.979998,238.520001 318.707501,238.632499 318.5025,238.7575 C318.297499,238.882501 318.15,239.024999 318.06,239.185 C317.97,239.345001 317.925,239.514999 317.925,239.695 L317.925,239.695 Z M325.275,233.155 C324.964998,233.155 324.710001,233.065001 324.51,232.885 C324.309999,232.704999 324.21,232.470001 324.21,232.18 C324.21,231.889999 324.309999,231.652501 324.51,231.4675 C324.710001,231.282499 324.964998,231.19 325.275,231.19 C325.585002,231.19 325.839999,231.282499 326.04,231.4675 C326.240001,231.652501 326.34,231.889999 326.34,232.18 C326.34,232.470001 326.240001,232.704999 326.04,232.885 C325.839999,233.065001 325.585002,233.155 325.275,233.155 L325.275,233.155 Z M324.405,234.445 L326.13,234.445 L326.13,241.81 L324.405,241.81 L324.405,234.445 Z M328.335,234.445 L329.76,234.445 L329.88,235.435 L329.94,235.435 C330.270002,235.114998 330.627498,234.840001 331.0125,234.61 C331.397502,234.379999 331.844997,234.265 332.355,234.265 C333.145004,234.265 333.719998,234.517497 334.08,235.0225 C334.440002,235.527503 334.62,236.249995 334.62,237.19 L334.62,241.81 L332.895,241.81 L332.895,237.415 C332.895,236.804997 332.805001,236.375001 332.625,236.125 C332.444999,235.874999 332.150002,235.75 331.74,235.75 C331.419998,235.75 331.137501,235.827499 330.8925,235.9825 C330.647499,236.137501 330.370002,236.364999 330.06,236.665 L330.06,241.81 L328.335,241.81 L328.335,234.445 Z M336.255,238.135 C336.255,237.534997 336.349999,236.995002 336.54,236.515 C336.730001,236.034998 336.982498,235.630002 337.2975,235.3 C337.612502,234.969998 337.974998,234.715001 338.385,234.535 C338.795002,234.354999 339.214998,234.265 339.645,234.265 C340.145003,234.265 340.584998,234.349999 340.965,234.52 C341.345002,234.690001 341.662499,234.929998 341.9175,235.24 C342.172501,235.550002 342.364999,235.919998 342.495,236.35 C342.625001,236.780002 342.69,237.249997 342.69,237.76 C342.69,238.100002 342.665,238.369999 342.615,238.57 L337.935,238.57 C338.015,239.240003 338.247498,239.754998 338.6325,240.115 C339.017502,240.475002 339.509997,240.655 340.11,240.655 C340.430002,240.655 340.727499,240.6075 341.0025,240.5125 C341.277501,240.4175 341.549999,240.285001 341.82,240.115 L342.405,241.195 C342.054998,241.425001 341.665002,241.614999 341.235,241.765 C340.804998,241.915001 340.355002,241.99 339.885,241.99 C339.374997,241.99 338.900002,241.902501 338.46,241.7275 C338.019998,241.552499 337.635002,241.300002 337.305,240.97 C336.974998,240.639998 336.717501,240.237502 336.5325,239.7625 C336.347499,239.287498 336.255,238.745003 336.255,238.135 L336.255,238.135 Z M341.19,237.475 C341.19,236.884997 341.067501,236.425002 340.8225,236.095 C340.577499,235.764998 340.200003,235.6 339.69,235.6 C339.249998,235.6 338.865002,235.757498 338.535,236.0725 C338.204998,236.387502 338,236.854997 337.92,237.475 L341.19,237.475 Z M344.34,234.445 L345.765,234.445 L345.885,235.75 L345.945,235.75 C346.205001,235.269998 346.519998,234.902501 346.89,234.6475 C347.260002,234.392499 347.639998,234.265 348.03,234.265 C348.380002,234.265 348.659999,234.315 348.87,234.415 L348.57,235.915 C348.439999,235.875 348.320001,235.845 348.21,235.825 C348.099999,235.805 347.965001,235.795 347.805,235.795 C347.514999,235.795 347.210002,235.907499 346.89,236.1325 C346.569998,236.357501 346.295001,236.749997 346.065,237.31 L346.065,241.81 L344.34,241.81 L344.34,234.445 Z M349.86,239.86 C350.190002,240.120001 350.517498,240.322499 350.8425,240.4675 C351.167502,240.612501 351.519998,240.685 351.9,240.685 C352.300002,240.685 352.594999,240.602501 352.785,240.4375 C352.975001,240.272499 353.07,240.060001 353.07,239.8 C353.07,239.649999 353.025,239.517501 352.935,239.4025 C352.845,239.287499 352.725001,239.185 352.575,239.095 C352.424999,239.005 352.255001,238.9225 352.065,238.8475 C351.874999,238.7725 351.685001,238.695 351.495,238.615 C351.254999,238.525 351.010001,238.420001 350.76,238.3 C350.509999,238.179999 350.287501,238.035001 350.0925,237.865 C349.897499,237.694999 349.737501,237.497501 349.6125,237.2725 C349.487499,237.047499 349.425,236.780002 349.425,236.47 C349.425,235.819997 349.664998,235.290002 350.145,234.88 C350.625002,234.469998 351.279996,234.265 352.11,234.265 C352.620003,234.265 353.079998,234.354999 353.49,234.535 C353.900002,234.715001 354.254998,234.919999 354.555,235.15 L353.76,236.2 C353.499999,236.009999 353.237501,235.857501 352.9725,235.7425 C352.707499,235.627499 352.430001,235.57 352.14,235.57 C351.769998,235.57 351.497501,235.647499 351.3225,235.8025 C351.147499,235.957501 351.06,236.149999 351.06,236.38 C351.06,236.530001 351.1025,236.657499 351.1875,236.7625 C351.2725,236.867501 351.384999,236.96 351.525,237.04 C351.665001,237.12 351.827499,237.195 352.0125,237.265 C352.197501,237.335 352.389999,237.405 352.59,237.475 C352.840001,237.565 353.089999,237.667499 353.34,237.7825 C353.590001,237.897501 353.817499,238.039999 354.0225,238.21 C354.227501,238.380001 354.392499,238.587499 354.5175,238.8325 C354.642501,239.077501 354.705,239.369998 354.705,239.71 C354.705,240.030002 354.642501,240.327499 354.5175,240.6025 C354.392499,240.877501 354.210001,241.117499 353.97,241.3225 C353.729999,241.527501 353.430002,241.689999 353.07,241.81 C352.709998,241.930001 352.300002,241.99 351.84,241.99 C351.329997,241.99 350.827502,241.892501 350.3325,241.6975 C349.837498,241.502499 349.410002,241.260001 349.05,240.97 L349.86,239.86 Z" id="Containers" fill="#2276AD"></path>
            <path d="M361.94,9 L363.785,9 L365.165,13.935 C365.325001,14.4950028 365.467499,15.0249975 365.5925,15.525 C365.717501,16.0250025 365.864999,16.5599972 366.035,17.13 L366.095,17.13 C366.265001,16.5599972 366.412499,16.0250025 366.5375,15.525 C366.662501,15.0249975 366.799999,14.4950028 366.95,13.935 L368.315,9 L370.1,9 L367.055,18.81 L365,18.81 L361.94,9 Z M371.285,9 L373.205,9 L374.975,13.83 L375.62,15.69 L375.68,15.69 L376.31,13.83 L378.05,9 L379.97,9 L379.97,18.81 L378.335,18.81 L378.335,14.325 C378.335,14.0949989 378.3425,13.8450014 378.3575,13.575 C378.3725,13.3049986 378.39,13.0325014 378.41,12.7575 C378.43,12.4824986 378.455,12.2125013 378.485,11.9475 C378.515,11.6824987 378.54,11.4350011 378.56,11.205 L378.5,11.205 L377.705,13.44 L376.01,17.895 L375.2,17.895 L373.505,13.44 L372.725,11.205 L372.665,11.205 C372.685,11.4350011 372.7075,11.6824987 372.7325,11.9475 C372.7575,12.2125013 372.7825,12.4824986 372.8075,12.7575 C372.8325,13.0325014 372.8525,13.3049986 372.8675,13.575 C372.8825,13.8450014 372.89,14.0949989 372.89,14.325 L372.89,18.81 L371.285,18.81 L371.285,9 Z M382.385,16.86 C382.715002,17.1200013 383.042498,17.3224993 383.3675,17.4675 C383.692502,17.6125007 384.044998,17.685 384.425,17.685 C384.825002,17.685 385.119999,17.6025008 385.31,17.4375 C385.500001,17.2724992 385.595,17.0600013 385.595,16.8 C385.595,16.6499992 385.55,16.5175006 385.46,16.4025 C385.37,16.2874994 385.250001,16.1850004 385.1,16.095 C384.949999,16.0049995 384.780001,15.9225004 384.59,15.8475 C384.399999,15.7724996 384.210001,15.6950004 384.02,15.615 C383.779999,15.5249995 383.535001,15.4200006 383.285,15.3 C383.034999,15.1799994 382.812501,15.0350008 382.6175,14.865 C382.422499,14.6949991 382.262501,14.4975011 382.1375,14.2725 C382.012499,14.0474989 381.95,13.7800015 381.95,13.47 C381.95,12.8199967 382.189998,12.290002 382.67,11.88 C383.150002,11.4699979 383.804996,11.265 384.635,11.265 C385.145003,11.265 385.604998,11.3549991 386.015,11.535 C386.425002,11.7150009 386.779998,11.9199988 387.08,12.15 L386.285,13.2 C386.024999,13.009999 385.762501,12.8575006 385.4975,12.7425 C385.232499,12.6274994 384.955001,12.57 384.665,12.57 C384.294998,12.57 384.022501,12.6474992 383.8475,12.8025 C383.672499,12.9575008 383.585,13.1499988 383.585,13.38 C383.585,13.5300007 383.6275,13.6574995 383.7125,13.7625 C383.7975,13.8675005 383.909999,13.9599996 384.05,14.04 C384.190001,14.1200004 384.352499,14.1949996 384.5375,14.265 C384.722501,14.3350003 384.914999,14.4049996 385.115,14.475 C385.365001,14.5650004 385.614999,14.6674994 385.865,14.7825 C386.115001,14.8975006 386.342499,15.0399991 386.5475,15.21 C386.752501,15.3800008 386.917499,15.5874988 387.0425,15.8325 C387.167501,16.0775012 387.23,16.3699983 387.23,16.71 C387.23,17.0300016 387.167501,17.3274986 387.0425,17.6025 C386.917499,17.8775014 386.735001,18.117499 386.495,18.3225 C386.254999,18.527501 385.955002,18.6899994 385.595,18.81 C385.234998,18.9300006 384.825002,18.99 384.365,18.99 C383.854997,18.99 383.352502,18.892501 382.8575,18.6975 C382.362498,18.502499 381.935002,18.2600014 381.575,17.97 L382.385,16.86 Z" id="VMs" fill="#1EA16E"></path>
            <path d="M374.5,39.31 L374.5,25.31" id="Line" stroke="#CCCCCC" stroke-linecap="square"></path>
        </g>
    </g>
</svg>